<svg width="30" height="30" viewBox="0 0 30 30" fill="none" xmlns="http://www.w3.org/2000/svg">
<g clip-path="url(#clip0)">
<path d="M12.6571 20.2734C12.9807 20.2734 13.243 20.0111 13.243 19.6875C13.243 19.3639 12.9807 19.1016 12.6571 19.1016C12.3335 19.1016 12.0711 19.3639 12.0711 19.6875C12.0711 20.0111 12.3335 20.2734 12.6571 20.2734Z" fill="#118BDD"/>
<path d="M2.34457 7.96875V10.3125C2.34457 10.6361 2.6069 10.8984 2.93051 10.8984H19.8641C20.1877 10.8984 20.45 10.6361 20.45 10.3125V7.96875C20.45 7.64514 20.1877 7.38281 19.8641 7.38281H2.93051C2.6069 7.38281 2.34457 7.64514 2.34457 7.96875ZM8.55551 8.55469H19.2782V9.72656H8.55551V8.55469ZM3.51645 8.55469H7.38364V9.72656H3.51645V8.55469Z" fill="#118BDD"/>
<path d="M2.93051 13.2422H19.8641C20.1877 13.2422 20.45 12.9799 20.45 12.6562C20.45 12.3326 20.1877 12.0703 19.8641 12.0703H2.93051C2.6069 12.0703 2.34457 12.3326 2.34457 12.6562C2.34457 12.9799 2.6069 13.2422 2.93051 13.2422Z" fill="#118BDD"/>
<path d="M2.93051 15.5859H19.8641C20.1877 15.5859 20.45 15.3236 20.45 15C20.45 14.6764 20.1877 14.4141 19.8641 14.4141H2.93051C2.6069 14.4141 2.34457 14.6764 2.34457 15C2.34457 15.3236 2.6069 15.5859 2.93051 15.5859Z" fill="#118BDD"/>
<path d="M2.93051 17.9297H12.6571C12.9807 17.9297 13.243 17.6674 13.243 17.3438C13.243 17.0201 12.9807 16.7578 12.6571 16.7578H2.93051C2.6069 16.7578 2.34457 17.0201 2.34457 17.3438C2.34457 17.6674 2.6069 17.9297 2.93051 17.9297Z" fill="#118BDD"/>
<path d="M2.93051 20.2734H10.3133C10.6369 20.2734 10.8993 20.0111 10.8993 19.6875C10.8993 19.3639 10.6369 19.1016 10.3133 19.1016H2.93051C2.6069 19.1016 2.34457 19.3639 2.34457 19.6875C2.34457 20.0111 2.6069 20.2734 2.93051 20.2734Z" fill="#118BDD"/>
<path d="M7.96957 24.9609H10.9582C11.2304 26.2966 12.4141 27.3047 13.8289 27.3047C15.4444 27.3047 16.7586 25.9904 16.7586 24.375C16.7586 22.7596 15.4444 21.4453 13.8289 21.4453C12.4141 21.4453 11.2304 22.4534 10.9582 23.7891H7.96957C7.64596 23.7891 7.38364 24.0514 7.38364 24.375C7.38364 24.6986 7.64596 24.9609 7.96957 24.9609ZM13.8289 23.7891H12.1719C12.4138 23.1071 13.0651 22.6172 13.8289 22.6172C14.7982 22.6172 15.5868 23.4057 15.5868 24.375C15.5868 25.3443 14.7982 26.1328 13.8289 26.1328C13.0651 26.1328 12.4138 25.6429 12.1719 24.9609H13.8289C14.1525 24.9609 14.4149 24.6986 14.4149 24.375C14.4149 24.0514 14.1526 23.7891 13.8289 23.7891Z" fill="#118BDD"/>
<path d="M19.8641 4.6875C20.1877 4.6875 20.45 4.42518 20.45 4.10156C20.45 3.77795 20.1877 3.51562 19.8641 3.51562H18.6922C18.3687 3.51562 18.1063 3.77795 18.1063 4.10156C18.1063 4.42518 18.3687 4.6875 18.6922 4.6875H19.8641Z" fill="#118BDD"/>
<path d="M16.3485 4.6875C16.672 4.6875 16.9344 4.42518 16.9344 4.10156C16.9344 3.77795 16.672 3.51562 16.3485 3.51562H15.1766C14.8531 3.51562 14.5907 3.77795 14.5907 4.10156C14.5907 4.42518 14.8531 4.6875 15.1766 4.6875H16.3485Z" fill="#118BDD"/>
<path d="M12.8329 4.6875C13.1565 4.6875 13.4188 4.42518 13.4188 4.10156C13.4188 3.77795 13.1565 3.51562 12.8329 3.51562H11.661C11.3374 3.51562 11.075 3.77795 11.075 4.10156C11.075 4.42518 11.3374 4.6875 11.661 4.6875H12.8329Z" fill="#118BDD"/>
<path d="M11.4852 30C11.8088 30 12.0711 29.7377 12.0711 29.4141C12.0711 29.0905 11.8088 28.8281 11.4852 28.8281C11.1616 28.8281 10.8993 29.0905 10.8993 29.4141C10.8993 29.7377 11.1616 30 11.4852 30Z" fill="#118BDD"/>
<path d="M0.586761 30H8.84848C9.17209 30 9.43442 29.7377 9.43442 29.4141C9.43442 29.0904 9.17209 28.8281 8.84848 28.8281H1.1727V5.85938H5.27426C5.59787 5.85938 5.8602 5.59705 5.8602 5.27344V1.17188H21.6219V17.7335C21.3561 18.048 21.1079 18.3241 20.8932 18.5444L19.651 17.3022C18.5064 16.1568 16.6526 16.1563 15.5075 17.3021L14.679 18.1306C14.4502 18.3594 14.4502 18.7304 14.679 18.9592L21.6219 25.9021V28.8281H14.1219C13.7982 28.8281 13.5359 29.0904 13.5359 29.4141C13.5359 29.7377 13.7982 30 14.1219 30H22.2078C22.5313 30 22.7937 29.7377 22.7937 29.4141V27.0739L22.9654 27.2456C23.1942 27.4742 23.5652 27.4744 23.794 27.2456L24.6226 26.4171C25.7674 25.2722 25.7676 23.4188 24.6226 22.2738L23.3806 21.0317C24.492 19.9487 26.9368 18.1498 28.2214 17.5904C30.0244 16.8055 30.6751 14.354 29.1367 12.8156C27.6099 11.2881 25.1693 11.9088 24.3697 13.717C24.0698 14.3947 23.4486 15.3475 22.7938 16.2404V0.585938C22.7938 0.262324 22.5314 0 22.2079 0H5.27426C5.11448 0 4.9643 0.0673828 4.85994 0.171621L0.172445 4.85912C0.066449 4.96488 0.000823975 5.11441 0.000823975 5.27344V29.4141C0.000823975 29.7377 0.263148 30 0.586761 30ZM23.7939 23.1024C24.4808 23.7892 24.4809 24.9014 23.7939 25.5884L23.3797 26.0026L15.922 18.5449L16.3363 18.1306C17.0232 17.4434 18.135 17.4431 18.8222 18.1307L23.7939 23.1024ZM22.6671 18.3107C23.6825 17.0861 24.9342 15.3373 25.4414 14.1911C25.8969 13.1612 27.3443 12.6801 28.308 13.6442C29.2721 14.6083 28.7823 16.0682 27.7536 16.5159C26.2956 17.151 23.758 19.0238 22.5519 20.203L21.7219 19.373C21.9997 19.0888 22.3242 18.7244 22.6671 18.3107ZM4.68832 2.00051V4.6875H2.00133L4.68832 2.00051Z" fill="#118BDD"/>
</g>
<defs>
<clipPath id="clip0">
<rect width="30" height="30" fill="white"/>
</clipPath>
</defs>
</svg>
