<svg width="30" height="30" viewBox="0 0 30 30" fill="none" xmlns="http://www.w3.org/2000/svg">
<g clip-path="url(#clip0)">
<path d="M18.8196 9.7437L16.5416 9.41241L15.523 7.34839C15.4243 7.14841 15.2207 7.02179 14.9976 7.02173C14.7746 7.02173 14.5709 7.14835 14.4722 7.34827L13.453 9.41241L11.1749 9.7437C10.9542 9.77581 10.7709 9.93044 10.702 10.1425C10.6332 10.3547 10.6906 10.5875 10.8503 10.7431L12.4988 12.3498L12.1097 14.6184C12.0719 14.8382 12.1623 15.0604 12.3428 15.1915C12.5233 15.3226 12.7625 15.3399 12.9599 15.2361L14.9974 14.1648L17.0346 15.236C17.2336 15.3407 17.4727 15.3215 17.6517 15.1915C17.8321 15.0604 17.9225 14.8382 17.8848 14.6184L17.4956 12.3498L19.1442 10.7431C19.3039 10.5874 19.3614 10.3546 19.2925 10.1425C19.2236 9.93038 19.0403 9.77581 18.8196 9.7437ZM16.4571 11.7256C16.319 11.8602 16.256 12.0542 16.2886 12.2442L16.529 13.6462L15.2703 12.9843C15.0996 12.8945 14.8956 12.8945 14.7249 12.9843L13.4655 13.6464L13.7059 12.2442C13.7385 12.0542 13.6755 11.8602 13.5374 11.7256L12.5184 10.7325L13.9264 10.5277C14.1172 10.5 14.2821 10.3801 14.3674 10.2073L14.9974 8.93141L15.6269 10.2072C15.7123 10.3801 15.8772 10.5 16.068 10.5277L17.476 10.7325L16.4571 11.7256Z" fill="#118BDD"/>
<path d="M1.64275 25.0169C2.57539 25.2034 4.47271 25.5829 5.40288 25.7689C5.5888 26.6987 5.96872 28.5984 6.15481 29.529C6.1977 29.7435 6.35661 29.9163 6.5669 29.977C6.77579 30.0373 7.00278 29.977 7.1543 29.8174L14.3785 22.2064C14.5579 22.2452 14.749 22.2656 14.9512 22.2656C15.156 22.2656 15.3458 22.2449 15.5246 22.2045L22.848 29.8202C22.997 29.975 23.2222 30.0386 23.4347 29.9764C23.6441 29.9153 23.8021 29.7429 23.8449 29.529C24.0313 28.5973 24.4108 26.6991 24.5969 25.7689C25.5267 25.5829 27.4244 25.2034 28.357 25.0169C28.5665 24.975 28.7366 24.8224 28.8008 24.6186C28.8651 24.4148 28.8134 24.1923 28.6658 24.0377L22.7873 17.881C22.8669 17.8565 22.9492 17.837 23.0343 17.8236C23.7069 17.7181 24.2165 17.3502 24.5923 16.6992C24.9527 16.075 25.0177 15.4408 24.7854 14.8143C24.5185 14.0952 24.7145 13.356 25.2967 12.8854C25.8266 12.4577 26.0841 11.8844 26.0841 11.1328C26.0841 10.4115 25.823 9.82967 25.3083 9.40363C24.7182 8.91467 24.5186 8.17651 24.7875 7.47731C25.032 6.84251 24.9681 6.21743 24.5923 5.56639C24.2314 4.94126 23.7144 4.56784 23.0564 4.45675C22.3004 4.32814 21.7584 3.78872 21.6419 3.04833C21.5355 2.3765 21.1678 1.8672 20.5173 1.49097C19.8919 1.13056 19.2575 1.06594 18.6323 1.29867C17.9135 1.56515 17.1745 1.36898 16.7035 0.786327C16.2754 0.257226 15.7023 0 14.9512 0C14.2303 0 13.6486 0.260742 13.2221 0.775194C12.7328 1.36582 11.9945 1.56545 11.2955 1.29644C10.66 1.05211 10.0351 1.1158 9.38479 1.49121C8.75977 1.85214 8.38635 2.36935 8.27514 3.02771C8.14664 3.78333 7.60706 4.32526 6.86766 4.44204C6.19583 4.54745 5.68624 4.91513 5.30966 5.56639C4.94925 6.19065 4.88421 6.82481 5.11659 7.45135C5.38349 8.17041 5.18743 8.90963 4.60478 9.38061C4.07568 9.80869 3.81845 10.3819 3.81845 11.1328C3.81845 11.8544 4.07937 12.4362 4.59364 12.8619C5.18409 13.3511 5.38384 14.0893 5.11495 14.7883C4.87038 15.4235 4.93407 16.0486 5.30966 16.6992C5.67048 17.3241 6.18739 17.6976 6.84557 17.8088C6.94131 17.8251 7.03418 17.8493 7.12424 17.8792L1.33086 24.041C1.18508 24.1961 1.1348 24.418 1.19961 24.6208C1.26441 24.8235 1.4341 24.9751 1.64275 25.0169ZM6.52823 25.4201L6.47544 25.156C6.42909 24.924 6.24774 24.7426 6.01571 24.6962L5.65759 24.6246L9.26965 20.7039C9.66996 20.9593 10.1071 21.1128 10.5744 21.1028L6.52823 25.4201ZM7.08229 28.1911L6.81065 26.8325L12.3567 20.9149C12.6824 21.0086 12.9751 21.2031 13.1991 21.4799C13.2383 21.5283 13.2795 21.5738 13.3216 21.6178L7.08229 28.1911ZM22.9158 28.1998L16.576 21.6072C16.6117 21.5695 16.6468 21.531 16.6805 21.4903C16.9155 21.2065 17.217 21.008 17.5488 20.9141L23.1886 26.8354L22.9158 28.1998ZM23.984 24.6963C23.752 24.7427 23.5707 24.924 23.5243 25.1561L23.4693 25.4311L19.3568 21.1134C19.7396 21.1136 20.1237 21.0015 20.5171 20.7747C20.5583 20.7509 20.598 20.7263 20.637 20.7011L24.3297 24.6272L23.984 24.6963ZM27.0828 24.0767L25.6838 24.3564L21.4336 19.8375C21.5255 19.6527 21.5909 19.4526 21.6274 19.2376C21.6667 19.0059 21.746 18.7938 21.8592 18.6059L27.0828 24.0767ZM7.04157 16.6535C6.81956 16.6159 6.56075 16.5224 6.32456 16.1132C6.07929 15.6884 6.12833 15.4179 6.20866 15.2091C6.65719 14.0431 6.31676 12.7676 5.34106 11.9593C5.16763 11.8158 4.99032 11.6053 4.99032 11.1328C4.99032 10.6422 5.16804 10.4322 5.34165 10.2918C6.31325 9.50641 6.65614 8.23141 6.21528 7.04372C6.13688 6.83231 6.08854 6.56102 6.32432 6.15268C6.57042 5.72706 6.82887 5.63431 7.04983 5.59968C8.28369 5.40479 9.21809 4.47239 9.43055 3.22359C9.46811 3.0014 9.56162 2.74236 9.97072 2.50611C10.3954 2.26095 10.6661 2.31 10.8748 2.39021C12.0406 2.83904 13.3162 2.49855 14.1244 1.52302C14.2684 1.34935 14.4792 1.17187 14.9512 1.17187C15.4418 1.17187 15.6517 1.34959 15.7923 1.52326C16.5776 2.49474 17.8523 2.83775 19.0404 2.39718C19.2514 2.31861 19.5225 2.27021 19.9313 2.50582C20.3564 2.75162 20.4495 3.01072 20.4844 3.23109C20.6785 4.46501 21.611 5.39958 22.8606 5.6121C23.0825 5.6496 23.3411 5.74305 23.5774 6.15227C23.8229 6.57766 23.774 6.84795 23.6938 7.05637C23.2452 8.22262 23.5854 9.49815 24.5608 10.3062C24.7346 10.45 24.9122 10.6606 24.9122 11.1327C24.9122 11.6235 24.7344 11.8331 24.5602 11.9737C23.5886 12.7591 23.2458 14.0341 23.6866 15.2218C23.765 15.4332 23.8134 15.7045 23.5773 16.1132C23.3319 16.5385 23.0733 16.6312 22.8521 16.6659C21.6128 16.8616 20.6827 17.7994 20.472 19.0415C20.4154 19.3754 20.2337 19.5855 19.932 19.7593C19.5065 20.0046 19.2357 19.9555 19.0274 19.8754C18.5916 19.7075 18.1415 19.6474 17.6908 19.6966C16.9502 19.7759 16.2709 20.1475 15.7779 20.7429C15.5607 21.0053 15.2999 21.0936 14.9513 21.0936C14.5195 21.0936 14.2887 20.9628 14.1096 20.7421C13.5558 20.0575 12.752 19.6787 11.8982 19.6787C11.5502 19.6787 11.203 19.7421 10.8616 19.8683C10.6506 19.9469 10.3797 19.9953 9.97096 19.7595C9.59074 19.5399 9.46143 19.3086 9.41819 19.0338C9.22606 17.8217 8.31006 16.8692 7.04157 16.6535ZM8.04457 18.6111C8.1518 18.7927 8.22557 18.9961 8.26049 19.2166C8.29629 19.4439 8.36526 19.6547 8.46428 19.8485L4.31204 24.3556L2.90749 24.0747L8.04457 18.6111Z" fill="#118BDD"/>
<path d="M19.9805 16.6406C20.3041 16.6406 20.5664 16.3783 20.5664 16.0547C20.5664 15.7311 20.3041 15.4688 19.9805 15.4688C19.6568 15.4688 19.3945 15.7311 19.3945 16.0547C19.3945 16.3783 19.6568 16.6406 19.9805 16.6406Z" fill="#118BDD"/>
<path d="M15 18.75C16.0644 18.75 17.0944 18.5345 18.0616 18.1095C18.3579 17.9793 18.4925 17.6336 18.3623 17.3374C18.2321 17.0411 17.8864 16.9065 17.5901 17.0367C16.7725 17.396 15.9011 17.5781 15 17.5781C11.4461 17.5781 8.55469 14.6868 8.55469 11.1328C8.55469 7.57887 11.4461 4.6875 15 4.6875C18.5539 4.6875 21.4453 7.57887 21.4453 11.1328C21.4453 12.0076 21.2733 12.8554 20.9341 13.6529C20.8074 13.9507 20.9462 14.2948 21.2439 14.4214C21.5416 14.5481 21.8858 14.4093 22.0124 14.1116C22.4137 13.1682 22.6172 12.1661 22.6172 11.1328C22.6172 6.9327 19.2002 3.51562 15 3.51562C10.7998 3.51562 7.38281 6.9327 7.38281 11.1328C7.38281 15.3329 10.7999 18.75 15 18.75Z" fill="#118BDD"/>
</g>
<defs>
<clipPath id="clip0">
<rect width="30" height="30" fill="white"/>
</clipPath>
</defs>
</svg>
