<svg width="30" height="30" viewBox="0 0 30 30" fill="none" xmlns="http://www.w3.org/2000/svg">
<g clip-path="url(#clip0)">
<path d="M25.0311 9.98333C24.4661 -3.32249 5.5514 -3.32801 4.96901 9.96818C4.96519 12.363 5.81917 14.6828 7.37371 16.5003C7.79987 16.9981 8.17919 17.5332 8.50626 18.0968C6.56318 19.3067 7.54872 22.1734 9.84921 21.9774C9.99011 22.8381 9.94684 24.1418 9.9523 25.0224C9.9523 26.481 11.0218 27.694 12.4177 27.9197C13.0548 30.6943 16.9465 30.6924 17.5825 27.9197C18.9784 27.694 20.0479 26.481 20.0479 25.0224C20.0533 24.1385 20.0093 22.841 20.1524 21.9774C22.4484 22.1722 23.4338 19.3149 21.5019 18.1015C21.8352 17.5261 22.2217 16.9777 22.6558 16.4652C24.1875 14.6586 25.0311 12.3566 25.0311 9.98333ZM15 28.8369C14.4003 28.8369 13.8839 28.4748 13.657 27.9578H16.3429C16.1162 28.4748 15.5997 28.8369 15 28.8369ZM17.1124 26.7837H12.8877C11.8963 26.7855 11.0967 25.9575 11.1265 24.9676H18.8737C18.9034 25.9575 18.1038 26.7854 17.1124 26.7837ZM20.4462 20.8032C20.1049 20.8036 19.395 20.8029 19.0585 20.8032C18.3334 20.8245 18.2605 21.8419 18.9693 21.9698C18.8889 22.5703 18.8668 23.1875 18.8737 23.7934H11.1265C11.1331 23.1899 11.1117 22.5772 11.033 21.9773H13.7748C14.099 21.9773 14.3618 21.7145 14.3618 21.3902C14.3618 21.066 14.099 20.8031 13.7748 20.8031H9.55391C9.05324 20.8031 8.64586 20.3958 8.64586 19.8951C8.64586 19.3944 9.05318 18.987 9.55391 18.987C12.7247 18.9873 17.2758 18.9869 20.4461 18.987C21.6475 19.0354 21.6536 20.7522 20.4462 20.8032ZM15.7703 13.0756C15.3035 12.8401 14.6925 12.8423 14.2302 13.0762L12.0257 10.0284H13.2453C13.4458 10.0284 13.6324 9.92603 13.7402 9.75701L14.1891 9.05327L15.1765 11.3076C15.355 11.734 15.9703 11.781 16.211 11.385L17.0657 10.0283H17.9743L15.7703 13.0756ZM14.4129 14.6599C14.4107 14.1138 15.11 13.8637 15.4537 14.2875C15.4541 14.288 15.4544 14.2884 15.4547 14.2888C15.5405 14.3934 15.5871 14.5231 15.5871 14.66V17.8131H14.4129V14.6599ZM20.3179 17.813H16.7613V14.6599C16.7613 14.4033 16.7063 14.155 16.6026 13.9282L19.4236 10.0283H20.6818C21.4605 9.99736 21.4603 8.88495 20.6818 8.85413H20.2729L20.7789 8.15456C21.2103 7.50554 20.3089 6.85364 19.8275 7.46638L18.8238 8.85413H16.7418C16.5401 8.85413 16.3525 8.95763 16.245 9.1283L15.808 9.82223L14.8236 7.57481C14.6456 7.14959 14.0321 7.10133 13.7908 7.49461L12.9235 8.85419H11.1764L10.1726 7.46643C9.69117 6.85364 8.78988 7.50565 9.22121 8.15462L9.72722 8.85419H9.31837C8.5396 8.88507 8.53984 9.99754 9.31837 10.0284H10.5766L13.3982 13.9292C13.2962 14.152 13.2388 14.3993 13.2388 14.66V17.8131H9.69281C9.2933 17.075 8.81453 16.378 8.26584 15.737C3.37243 10.0587 7.49606 1.10102 15.0001 1.12662C22.4865 1.10114 26.6157 10.0208 21.7599 15.7063C21.206 16.3602 20.7221 17.0676 20.3179 17.813Z" fill="#118BDD"/>
<path d="M16.9602 21.614C17.085 21.3148 16.9436 20.971 16.6443 20.8461C16.3451 20.7213 16.0013 20.8627 15.8764 21.162C15.7516 21.4612 15.893 21.8051 16.1923 21.9299C16.4915 22.0547 16.8353 21.9133 16.9602 21.614Z" fill="#118BDD"/>
</g>
<defs>
<clipPath id="clip0">
<rect width="30" height="30" fill="white"/>
</clipPath>
</defs>
</svg>
