<svg width="21" height="20" viewBox="0 0 21 20" fill="none" xmlns="http://www.w3.org/2000/svg">
<path d="M2.90625 4.5625C3.21875 4.84375 3.57812 4.98438 3.98438 4.98438C4.39062 4.98438 4.73438 4.84375 5.01562 4.5625C5.32812 4.25 5.48438 3.89062 5.48438 3.48438C5.48438 3.07812 5.32812 2.73438 5.01562 2.45312C4.73438 2.14062 4.39062 1.98438 3.98438 1.98438C3.57812 1.98438 3.21875 2.14062 2.90625 2.45312C2.625 2.73438 2.48438 3.07812 2.48438 3.48438C2.48438 3.89062 2.625 4.25 2.90625 4.5625ZM19.9219 9.57812C20.2969 9.95312 20.4844 10.4219 20.4844 10.9844C20.4844 11.5469 20.2969 12.0156 19.9219 12.3906L12.8906 19.4219C12.5156 19.7969 12.0469 19.9844 11.4844 19.9844C10.9219 19.9844 10.4531 19.7969 10.0781 19.4219L1.07812 10.4219C0.703125 10.0469 0.515625 9.57812 0.515625 9.01562V1.98438C0.515625 1.45313 0.703125 1 1.07812 0.625C1.48438 0.21875 1.95312 0.015625 2.48438 0.015625H9.51562C10.0781 0.015625 10.5469 0.203125 10.9219 0.578125L19.9219 9.57812Z" fill="#6C7477"/>
</svg>
