<svg width="760" height="252" viewBox="0 0 760 252" fill="none" xmlns="http://www.w3.org/2000/svg">
<g filter="url(#filter0_d_514_887)">
<path d="M378.953 35.8208C378.953 35.8208 425.411 18.692 426.608 18.1944C503.658 -13.891 589.838 52.7199 650.765 76.6811C658.899 79.8772 665.827 86.5565 690.956 75.0161C698.506 71.5425 707.998 65.5713 707.998 65.5713C717.414 69.3607 722.208 75.8199 719.357 86.9967C719.357 86.9967 701.357 97.9342 695.654 100.824C680.391 108.575 665.884 110.594 636.727 96.7094C605.608 81.8963 512.653 39.9355 512.424 39.8303C507.859 37.8016 476.626 23.4957 433.153 42.4235C411.45 51.8779 399.173 57.1887 392.264 60.1743C387.479 62.2413 381.929 59.9447 379.996 55.1027L375.451 43.7441C374.178 40.5767 375.767 36.9978 378.953 35.8208Z" fill="url(#paint0_linear_514_887)" stroke="black" stroke-width="3" stroke-miterlimit="10"/>
<path d="M365.527 27.3996C355.872 26.3757 346.81 28.0599 339.777 31.6387L135.121 115.331L176.852 160.65L376.666 78.4319C381.163 77.3793 385.24 75.6856 388.675 73.4942L388.694 73.4846C394.895 69.5135 399 63.8772 399.699 57.3032C401.201 42.9399 385.91 29.5527 365.527 27.3996Z" fill="url(#paint1_linear_514_887)" stroke="black" stroke-width="2" stroke-miterlimit="10"/>
<path d="M195.231 140.891C196.751 126.533 181.462 113.145 161.082 110.987C140.702 108.829 122.949 118.718 121.428 133.076C119.908 147.433 135.197 160.822 155.577 162.98C175.957 165.138 193.711 155.248 195.231 140.891Z" fill="url(#paint2_linear_514_887)" stroke="black" stroke-width="2" stroke-miterlimit="10"/>
<path d="M185.617 141.407C186.919 129.109 174.295 117.692 157.42 115.905C140.545 114.118 125.81 122.638 124.508 134.936C123.206 147.233 135.83 158.651 152.704 160.438C169.579 162.225 184.315 153.704 185.617 141.407Z" fill="url(#paint3_linear_514_887)" stroke="black" stroke-width="2" stroke-miterlimit="10"/>
<path d="M48.4722 161.99L151.656 123.589C151.656 123.589 181.943 128.651 165.599 149.521L59.869 189.559L48.4722 161.99Z" fill="url(#paint4_linear_514_887)" stroke="black" stroke-width="2" stroke-miterlimit="10"/>
<path d="M87.6773 204.276L68.1275 200.257C56.4818 197.865 46.7021 190.497 41.707 180.354L31.1044 158.832C29.1236 154.804 32.9704 150.412 37.5732 151.445L54.6637 155.311C66.9313 158.086 77.3234 165.703 83.1511 176.191L94.2609 196.21C96.6244 200.43 92.6437 205.291 87.6773 204.276Z" fill="url(#paint5_linear_514_887)" stroke="black" stroke-width="2" stroke-miterlimit="10"/>
<path d="M82.5962 209.979L63.0464 205.96C51.4008 203.568 41.6211 196.2 36.626 186.057L26.0233 164.536C24.0425 160.507 27.8893 156.115 32.4921 157.148L49.5826 161.014C61.8503 163.789 72.2424 171.406 78.07 181.894L89.1798 201.913C91.5434 206.133 87.5626 210.994 82.5962 209.979Z" fill="url(#paint6_linear_514_887)" stroke="black" stroke-width="2" stroke-miterlimit="10"/>
<path d="M26.521 159.282L32.5687 152.584" stroke="black" stroke-width="2" stroke-miterlimit="10"/>
<path d="M88.1562 208.43L94.0221 201.779" stroke="black" stroke-width="2" stroke-miterlimit="10"/>
<path d="M135.121 146.823C135.121 146.823 177.168 142.938 194.574 126.45C194.574 126.45 201.981 132.928 199.761 144.966C199.761 144.966 196.431 168.114 135.121 163.483V146.823Z" fill="url(#paint7_linear_514_887)" stroke="black" stroke-width="3" stroke-miterlimit="10"/>
<path d="M707.223 64.0689C707.223 64.0689 720.065 67.0353 717.596 90.7381C717.596 90.7381 731.672 99.6566 733.117 87.4272C734.6 74.8533 733.098 65.82 722.533 55.6767C713.309 46.7966 704.591 62.8345 707.223 64.0689Z" fill="url(#paint8_linear_514_887)" stroke="black" stroke-width="3" stroke-miterlimit="10"/>
<path d="M65.7354 198.991C71.0671 195.272 70.5631 185.338 64.6099 176.803C58.6566 168.268 49.5084 164.364 44.1768 168.083C38.8451 171.802 39.349 181.735 45.3023 190.27C51.2555 198.805 60.4038 202.71 65.7354 198.991Z" stroke="black" stroke-width="3" stroke-miterlimit="10"/>
<path d="M34.483 166.717C35.4981 166.404 35.9637 164.992 35.5229 163.563C35.0821 162.133 33.9019 161.229 32.8868 161.542C31.8717 161.855 31.4061 163.267 31.8469 164.696C32.2876 166.125 33.4679 167.03 34.483 166.717Z" fill="black" stroke="black" stroke-width="3" stroke-miterlimit="10"/>
<path d="M78.0611 201.657C79.0762 201.344 79.5418 199.931 79.101 198.502C78.6603 197.073 77.4801 196.168 76.465 196.481C75.4498 196.794 74.9843 198.206 75.425 199.636C75.8658 201.065 77.046 201.97 78.0611 201.657Z" fill="black" stroke="black" stroke-width="3" stroke-miterlimit="10"/>
<path d="M383.717 75.8583C383.717 75.8583 391.87 68.0786 385.937 52.1555C385.937 52.1555 389.334 41.4093 404.119 44.749C404.119 44.749 418.53 65.8586 383.717 75.8583Z" fill="url(#paint9_linear_514_887)" stroke="black" stroke-width="3" stroke-miterlimit="10"/>
</g>
<defs>
<filter id="filter0_d_514_887" x="0.489746" y="0.124023" width="758.61" height="250.991" filterUnits="userSpaceOnUse" color-interpolation-filters="sRGB">
<feFlood flood-opacity="0" result="BackgroundImageFix"/>
<feColorMatrix in="SourceAlpha" type="matrix" values="0 0 0 0 0 0 0 0 0 0 0 0 0 0 0 0 0 0 127 0" result="hardAlpha"/>
<feOffset dy="16"/>
<feGaussianBlur stdDeviation="12"/>
<feComposite in2="hardAlpha" operator="out"/>
<feColorMatrix type="matrix" values="0 0 0 0 0 0 0 0 0 0 0 0 0 0 0 0 0 0 0.3 0"/>
<feBlend mode="normal" in2="BackgroundImageFix" result="effect1_dropShadow_514_887"/>
<feBlend mode="normal" in="SourceGraphic" in2="effect1_dropShadow_514_887" result="shape"/>
</filter>
<linearGradient id="paint0_linear_514_887" x1="547.593" y1="9.62402" x2="547.593" y2="106.899" gradientUnits="userSpaceOnUse">
<stop stop-color="#CFCFCF"/>
<stop offset="1" stop-color="#787878"/>
</linearGradient>
<linearGradient id="paint1_linear_514_887" x1="267.461" y1="27.1035" x2="267.461" y2="160.65" gradientUnits="userSpaceOnUse">
<stop stop-color="#CFCFCF"/>
<stop offset="1" stop-color="#787878"/>
</linearGradient>
<linearGradient id="paint2_linear_514_887" x1="121.428" y1="133.076" x2="195.231" y2="140.891" gradientUnits="userSpaceOnUse">
<stop stop-color="#CFCFCF"/>
<stop offset="1" stop-color="#787878"/>
</linearGradient>
<linearGradient id="paint3_linear_514_887" x1="124.508" y1="134.936" x2="185.617" y2="141.407" gradientUnits="userSpaceOnUse">
<stop stop-color="#CFCFCF"/>
<stop offset="1" stop-color="#787878"/>
</linearGradient>
<linearGradient id="paint4_linear_514_887" x1="109.456" y1="123.589" x2="109.456" y2="189.559" gradientUnits="userSpaceOnUse">
<stop stop-color="#CFCFCF"/>
<stop offset="1" stop-color="#787878"/>
</linearGradient>
<linearGradient id="paint5_linear_514_887" x1="62.766" y1="151.292" x2="62.766" y2="204.412" gradientUnits="userSpaceOnUse">
<stop stop-color="#CFCFCF"/>
<stop offset="1" stop-color="#787878"/>
</linearGradient>
<linearGradient id="paint6_linear_514_887" x1="57.685" y1="156.995" x2="57.685" y2="210.115" gradientUnits="userSpaceOnUse">
<stop stop-color="#CFCFCF"/>
<stop offset="1" stop-color="#787878"/>
</linearGradient>
<linearGradient id="paint7_linear_514_887" x1="167.649" y1="126.45" x2="167.649" y2="164.096" gradientUnits="userSpaceOnUse">
<stop stop-color="#CFCFCF"/>
<stop offset="1" stop-color="#787878"/>
</linearGradient>
<linearGradient id="paint8_linear_514_887" x1="720.173" y1="53.0098" x2="720.173" y2="93.877" gradientUnits="userSpaceOnUse">
<stop stop-color="#CFCFCF"/>
<stop offset="1" stop-color="#787878"/>
</linearGradient>
<linearGradient id="paint9_linear_514_887" x1="395.396" y1="44.1055" x2="395.396" y2="75.8583" gradientUnits="userSpaceOnUse">
<stop stop-color="#CFCFCF"/>
<stop offset="1" stop-color="#787878"/>
</linearGradient>
</defs>
</svg>
