<svg id="svg" version="1.1" xmlns="http://www.w3.org/2000/svg" xmlns:xlink="http://www.w3.org/1999/xlink" width="400" height="148.34437086092714" viewBox="0, 0, 400,148.34437086092714"><g id="svgg"><path id="path0" d="M3.642 4.851 C 4.553 5.218,5.298 6.214,5.299 7.064 C 5.300 7.914,10.515 14.933,16.888 22.663 C 23.262 30.393,33.245 42.581,39.073 49.748 C 60.286 75.836,70.473 88.107,71.994 89.404 C 72.848 90.132,74.507 92.219,75.680 94.040 C 76.854 95.861,81.316 101.561,85.596 106.707 C 96.211 119.471,115.532 143.006,117.508 145.580 C 118.782 147.240,119.130 132.585,119.163 75.828 L 119.205 3.974 60.596 4.078 C 28.361 4.136,2.732 4.483,3.642 4.851 M149.669 27.469 L 149.669 50.965 172.848 27.815 C 185.596 15.082,196.026 4.509,196.026 4.319 C 196.026 4.129,185.596 3.974,172.848 3.974 L 149.669 3.974 149.669 27.469 M286.822 7.616 C 288.118 9.619,292.804 15.728,297.234 21.192 C 301.664 26.656,306.008 32.020,306.886 33.113 C 309.449 36.302,351.328 89.093,371.421 114.464 C 381.564 127.270,390.210 137.748,390.634 137.748 C 391.059 137.748,392.198 139.536,393.165 141.722 C 396.775 149.876,397.118 144.081,397.130 74.834 L 397.143 3.974 340.803 3.974 L 284.464 3.974 286.822 7.616 M225.207 18.212 C 219.156 24.586,204.051 40.077,191.640 52.635 L 169.076 75.469 185.200 91.593 C 194.069 100.461,201.325 108.006,201.325 108.358 C 201.325 108.711,206.903 114.723,213.721 121.718 C 220.539 128.714,228.357 136.970,231.093 140.066 C 233.830 143.162,236.597 145.695,237.240 145.695 C 237.903 145.695,238.411 115.529,238.411 76.159 C 238.411 37.914,237.915 6.623,237.310 6.623 C 236.705 6.623,231.258 11.838,225.207 18.212 M271.523 78.808 L 271.523 109.934 297.513 109.934 C 322.070 109.934,323.404 109.806,321.697 107.616 C 320.704 106.341,314.495 98.742,307.899 90.728 C 301.303 82.715,290.634 69.752,284.189 61.921 C 277.744 54.089,272.258 47.682,271.997 47.682 C 271.736 47.682,271.523 61.689,271.523 78.808 M149.698 124.172 L 149.669 148.344 173.156 148.344 L 196.644 148.344 182.623 134.106 C 174.911 126.275,164.355 115.397,159.165 109.934 L 149.727 100.000 149.698 124.172 " stroke="none" fill="#2b74ac" fill-rule="evenodd"></path></g></svg>