<svg width="208" height="320" viewBox="0 0 52 80" fill="none" xmlns="http://www.w3.org/2000/svg">
<path d="M36.2335 52.2182C21.0055 26.3792 36.3016 5.38284 40.3149 0.589714C40.3958 0.494291 40.4481 0.377495 40.4654 0.253088C40.4828 0.128681 40.4647 0.00184578 40.4131 -0.112476C40.3615 -0.226797 40.2786 -0.323842 40.1742 -0.392177C40.0699 -0.460511 39.9483 -0.497289 39.824 -0.498178C36.4885 -0.534974 27.8363 -0.061421 20.8804 5.27245C10.6983 13.0845 12.3613 40.7057 36.2335 52.2182Z" fill="#A62028"/>
<path d="M35.8157 46.7695C41.7437 51.7626 47.3994 53.4969 51.4365 54.0152C52.1967 54.1128 52.184 55.2407 51.4222 55.3239C48.649 55.6247 45.2661 55.5383 42.0526 54.26C36.2797 51.9626 35.8157 47.1775 35.8157 47.1775" fill="#A62028"/>
<path d="M14.7988 51.0057C14.9648 50.9875 15.1176 50.9063 15.2265 50.7785C15.6114 50.3111 15.8917 49.7652 16.0481 49.178C16.2045 48.5909 16.2332 47.9766 16.1324 47.3772C15.9613 46.3037 11.5838 48.1387 7.82864 50.6729C3.70448 53.4566 -0.855211 58.6961 0.137817 57.829C1.66933 56.498 3.52393 55.3493 6.50143 53.8102C8.60469 52.7239 10.8806 51.4472 14.7988 51.0057Z" fill="#A62028"/>
<path d="M19.4265 41.8147C19.5182 41.7134 19.6384 41.643 19.7709 41.6129C19.9035 41.5829 20.042 41.5947 20.1677 41.6467C20.4027 41.7333 20.6181 41.8665 20.8012 42.0386C25.9136 47.4477 33.8832 56.1909 45.0615 56.738C45.8756 56.778 47.3691 56.6132 44.6085 57.3652C41.848 58.1171 29.8208 61.6703 23.8484 59.1634C17.876 56.6564 17.5798 53.7703 17.5006 50.0571C17.4436 47.4845 18.3083 44.1776 18.9355 42.6002C19.0509 42.3105 19.2172 42.0444 19.4265 41.8147Z" fill="#A62028"/>
<path d="M4.49786 62.5756L9.26503 67.8151C9.35372 67.9116 9.46878 67.9795 9.59565 68.0099C9.72253 68.0404 9.8555 68.0322 9.97773 67.9863C23.3226 62.9787 27.1094 64.9594 37.8522 64.1562C41.6476 63.8832 45.4051 63.2163 49.0653 62.166C49.8683 61.9325 49.5848 60.7262 48.766 60.8862L48.6694 60.9038C45.4226 61.5437 40.6571 61.5437 36.997 61.5437C33.3369 61.5437 27.6733 61.1933 18.7629 59.7215C9.89379 58.256 8.4383 59.0495 6.78959 59.6095L6.74366 59.6287C5.97848 59.9782 5.31406 60.5189 4.81303 61.1997C4.62931 61.4589 4.5042 61.6573 4.41709 61.8109C4.35009 61.931 4.32186 62.0692 4.33634 62.2063C4.35082 62.3434 4.40729 62.4725 4.49786 62.5756Z" fill="#A62028"/>
<path d="M24.4416 70.4181H23.8794C23.7285 69.9707 23.4851 69.4913 23.1493 68.98C22.8183 68.4686 22.5117 68.1933 22.2294 68.154C22.0736 68.1343 21.8814 68.1171 21.6526 68.1023C21.4238 68.0876 21.2267 68.0802 21.0612 68.0802H20.7181V76.2887C20.7181 76.4657 20.7497 76.623 20.813 76.7607C20.8763 76.8934 21.0004 76.9991 21.1853 77.0778C21.2973 77.122 21.4701 77.1688 21.7037 77.2179C21.9422 77.2622 22.1442 77.2941 22.3097 77.3138V77.8891H16.5346V77.3138C16.6758 77.299 16.8729 77.2794 17.126 77.2548C17.3839 77.2253 17.5592 77.1909 17.6517 77.1515C17.8415 77.0729 17.968 76.9672 18.0313 76.8344C18.0946 76.7017 18.1262 76.5443 18.1262 76.3624V68.0802H17.7831C17.6176 68.0802 17.4205 68.0876 17.1917 68.1023C16.9629 68.1171 16.7707 68.1343 16.6149 68.154C16.3326 68.1933 16.0235 68.4686 15.6877 68.98C15.3567 69.4913 15.1158 69.9707 14.9649 70.4181H14.4027V67.4238H24.4416V70.4181Z" fill="#A62028"/>
<path d="M31.9032 76.473V68.1392H29.231C29.1775 69.6388 28.9268 71.2023 28.479 72.8298C28.0361 74.4572 27.4277 75.8953 26.6538 77.1442H31.2899C31.4895 77.1442 31.6404 77.0901 31.7426 76.9819C31.8497 76.8737 31.9032 76.7041 31.9032 76.473ZM28.3768 77.8595C28.1529 77.8595 27.9388 77.8645 27.7343 77.8743C27.5299 77.8792 27.3255 77.9013 27.121 77.9407C26.7365 78.0193 26.335 78.3242 25.9164 78.8552C25.4978 79.3911 25.2082 79.9393 25.0476 80.4998H24.5V77.1442H25.5294C26.1914 76.151 26.7901 74.8751 27.3255 73.3165C27.8657 71.753 28.1359 70.4181 28.1359 69.3118C28.1359 69.0218 28.1067 68.8005 28.0483 68.6481C27.9947 68.4908 27.8779 68.3605 27.6978 68.2572C27.5713 68.1835 27.3741 68.1269 27.1064 68.0876C26.8436 68.0433 26.644 68.0138 26.5078 67.9991V67.4238H36.0137V67.9991C35.8579 68.0089 35.6827 68.031 35.488 68.0655C35.2933 68.095 35.1181 68.1343 34.9623 68.1835C34.7773 68.2474 34.6532 68.3482 34.59 68.4858C34.5267 68.6235 34.495 68.7735 34.495 68.9357V76.4214C34.495 76.682 34.5754 76.8762 34.736 77.004C34.9015 77.127 35.1375 77.1884 35.4442 77.1884H36.1305V80.4998H35.5829C35.4271 79.9492 35.1327 79.4034 34.6995 78.8626C34.2663 78.3266 33.8696 78.0193 33.5094 77.9407C33.3634 77.9063 33.159 77.8841 32.8961 77.8743C32.6382 77.8645 32.424 77.8595 32.2536 77.8595H28.3768Z" fill="#A62028"/>
<path d="M46.2569 70.5582H45.6802C45.6266 70.3911 45.5317 70.1698 45.3954 69.8945C45.2591 69.6142 45.1131 69.361 44.9574 69.1348C44.7773 68.8693 44.5996 68.6505 44.4244 68.4785C44.2492 68.3064 44.0667 68.2031 43.8768 68.1687C43.7016 68.1392 43.5069 68.1195 43.2927 68.1097C43.0786 68.095 42.8523 68.0876 42.6138 68.0876H41.1316V76.3477C41.1316 76.5296 41.1706 76.6845 41.2485 76.8123C41.3263 76.9352 41.448 77.0311 41.6135 77.0999C41.7157 77.1393 41.8764 77.1786 42.0954 77.2179C42.3144 77.2523 42.5407 77.2843 42.7744 77.3138V77.8891H37.0212V77.3138C37.1623 77.299 37.3497 77.2794 37.5834 77.2548C37.817 77.2253 37.9801 77.1909 38.0725 77.1515C38.2478 77.0827 38.3694 76.9868 38.4376 76.8639C38.5057 76.741 38.5398 76.5837 38.5398 76.3919V69.0095C38.5398 68.8423 38.5082 68.6973 38.4449 68.5743C38.3865 68.4465 38.2624 68.3408 38.0725 68.2572C37.9362 68.1982 37.7562 68.1441 37.5323 68.095C37.3084 68.0458 37.138 68.0138 37.0212 67.9991V67.4238H46.2569V70.5582Z" fill="#A62028"/>
</svg>
