<svg width="14" height="21" viewBox="0 0 14 21" fill="none" xmlns="http://www.w3.org/2000/svg">
<path d="M6.99993 0.337402C3.32399 0.337402 0.333252 3.32815 0.333252 7.00408C0.333252 8.1076 0.60915 9.20174 1.13364 10.1722L6.63536 20.1226C6.7086 20.2552 6.84817 20.3374 6.99993 20.3374C7.15169 20.3374 7.29126 20.2552 7.3645 20.1226L12.8683 10.1689C13.3907 9.20174 13.6666 8.10756 13.6666 7.00404C13.6666 3.32814 10.6759 0.337402 6.99993 0.337402ZM6.99993 10.3374C5.16196 10.3374 3.66661 8.84205 3.66661 7.00408C3.66661 5.16611 5.16196 3.67076 6.99993 3.67076C8.8379 3.67076 10.3333 5.16611 10.3333 7.00408C10.3333 8.84205 8.8379 10.3374 6.99993 10.3374Z" fill="#CFDEE3"/>
</svg>
