<svg  viewBox="0 0 386 248" fill="none" xmlns="http://www.w3.org/2000/svg">
<g filter="url(#filter0_d_514_905)">
<path d="M352.6 131.581L333.588 125.709C322.26 122.212 313.265 113.958 309.285 103.408L300.836 81.0345C299.256 76.8463 303.499 72.854 307.969 74.3297L324.563 79.8099C336.472 83.7409 346.048 92.301 350.818 103.274L359.917 124.208C361.846 128.623 357.425 133.069 352.6 131.581Z" fill="url(#paint0_linear_514_905)" stroke="black" stroke-width="2" stroke-miterlimit="10"/>
<path d="M347.004 136.755L327.991 130.882C316.664 127.386 307.669 119.132 303.689 108.582L295.239 86.2083C293.659 82.0201 297.902 78.0279 302.372 79.5035L318.966 84.9837C330.875 88.9147 340.452 97.4748 345.222 108.447L354.321 129.382C356.249 133.797 351.829 138.242 347.004 136.755Z" fill="url(#paint1_linear_514_905)" stroke="black" stroke-width="2" stroke-miterlimit="10"/>
<path d="M296.236 81.0465L302.88 74.9785" stroke="black" stroke-width="2" stroke-miterlimit="10"/>
<path d="M352.667 135.75L359.127 129.719" stroke="black" stroke-width="2" stroke-miterlimit="10"/>
<path d="M331.291 124.24C336.941 121.063 337.4 111.158 332.316 102.118C327.232 93.0782 318.53 88.326 312.879 91.5039C307.229 94.6817 306.77 104.586 311.854 113.626C316.938 122.666 325.64 127.418 331.291 124.24Z" fill="url(#paint2_linear_514_905)" stroke="black" stroke-width="3" stroke-miterlimit="10"/>
<path d="M303.464 89.1872C304.501 88.9743 305.098 87.6175 304.798 86.1566C304.498 84.6957 303.415 83.684 302.378 83.8968C301.341 84.1097 300.744 85.4665 301.044 86.9274C301.343 88.3883 302.427 89.4001 303.464 89.1872Z" fill="#575756" stroke="black" stroke-width="3" stroke-miterlimit="10"/>
<path d="M343.35 128.047C344.387 127.834 344.984 126.477 344.684 125.016C344.384 123.555 343.301 122.543 342.264 122.756C341.227 122.969 340.629 124.326 340.929 125.787C341.229 127.248 342.313 128.259 343.35 128.047Z" fill="#575756" stroke="black" stroke-width="3" stroke-miterlimit="10"/>
<path d="M46.7867 36.1768L46.3887 46.9167" stroke="black" stroke-width="3" stroke-miterlimit="10"/>
<path d="M62.6826 40.8115V52.6107" stroke="black" stroke-width="3" stroke-miterlimit="10"/>
<path d="M299.456 100.157L315.303 94.4561C315.303 94.4561 332.38 105.196 330.831 121.961L318.199 127.392L299.456 100.157Z" fill="url(#paint3_linear_514_905)" stroke="black" stroke-width="3" stroke-miterlimit="10"/>
<path d="M275.478 104.449L296.621 94.4561C296.621 94.4561 327.487 107.933 320.966 148.094L304.501 155.84L275.478 104.449Z" fill="url(#paint4_linear_514_905)" stroke="black" stroke-width="3" stroke-miterlimit="10"/>
<path d="M272.747 105.766L284.571 100.053C284.571 100.053 308.794 101.669 311.023 152.215L299.034 158.608L272.747 105.766Z" fill="url(#paint5_linear_514_905)" stroke="black" stroke-width="3" stroke-miterlimit="10"/>
<path d="M267.353 114.166L185.046 144.782L231.325 178.416L301.514 146.294C301.514 146.294 299.187 118.991 284.822 109.788C270.464 100.579 268.131 109.121 267.353 114.166Z" fill="url(#paint6_linear_514_905)" stroke="black" stroke-width="3" stroke-miterlimit="10"/>
<path d="M239.444 171.387C237.093 179.971 220.922 182.224 204.322 176.72C187.722 171.221 176.731 159.979 179.334 151.468C180.093 148.988 181.379 147.2 183.014 145.97C192.486 138.818 213.77 150.06 212.943 152.276C212.962 150.017 243.406 156.899 239.444 171.387Z" fill="url(#paint7_linear_514_905)" stroke="black" stroke-width="3" stroke-miterlimit="10"/>
<path d="M26.2129 35.5273L49.2419 99.4402C49.2419 99.4402 62.7004 129.976 67.354 154.04C72.0137 178.104 107.497 210.195 150.175 192.077C192.853 173.964 207.604 166.715 207.604 166.715C207.604 166.715 210.965 143.429 187.936 147.305L139.288 168.784C139.288 168.784 114.447 178.875 102.023 166.458C89.5992 154.034 87.2724 132.817 81.8412 112.378C76.41 91.9395 57.2631 47.4306 57.2631 43.2914C57.2631 39.1522 26.2129 35.5273 26.2129 35.5273Z" fill="url(#paint8_linear_514_905)" stroke="black" stroke-width="3" stroke-miterlimit="10"/>
<path d="M54.5264 44.1367L77.5553 108.05C77.5553 108.05 91.0139 138.586 95.6675 162.649C100.327 186.713 135.81 218.804 178.488 200.686C221.166 182.568 235.917 175.324 235.917 175.324C235.917 175.324 239.279 152.038 216.25 155.914L167.602 177.394C167.602 177.394 142.76 187.485 130.336 175.067C117.913 162.643 115.586 141.427 110.155 120.988C104.724 100.549 85.5705 56.04 85.5705 51.8947C85.5705 47.7493 54.5264 44.1367 54.5264 44.1367Z" fill="url(#paint9_linear_514_905)" stroke="black" stroke-width="3" stroke-miterlimit="10"/>
<path d="M28.2523 60.3506C26.8318 60.3629 25.2581 60.767 23.6172 61.3793C20.0351 62.7203 17.2736 64.4531 14.3896 64.4041C17.2063 64.3796 19.9127 62.6897 23.4212 61.3855C25.1479 60.7364 26.7889 60.3262 28.2523 60.3506Z" fill="url(#paint10_linear_514_905)" stroke="black" stroke-width="3" stroke-miterlimit="10"/>
<path d="M53.9691 71.2256C50.6565 71.2807 47.4235 72.7625 47.4235 72.7625C47.4235 72.7625 45.3171 73.3442 42.7944 73.436C45.2314 73.3258 47.2337 72.7686 47.2337 72.7686C47.2337 72.7686 50.5891 71.2256 53.9691 71.2256Z" fill="url(#paint11_linear_514_905)" stroke="black" stroke-width="3" stroke-miterlimit="10"/>
<path d="M107.118 33.6602V42.9673C107.124 43.8429 106.689 44.9205 105.624 46.237C98.6983 53.8603 73.8937 81.1142 73.8937 81.1142C73.8937 81.1142 70.4525 83.9492 67.0113 83.992C65.0335 83.9675 63.0741 82.9756 61.7944 79.9569C61.4332 79.1119 61.127 78.1016 60.8882 76.9076C60.1473 72.5112 57.2511 71.2805 54.3304 71.2376C54.2324 71.2315 54.1467 71.2315 54.0548 71.2315H53.9752C50.5953 71.2315 47.2459 72.7684 47.2459 72.7684C47.2459 72.7684 45.2376 73.3256 42.8067 73.4358C42.5985 73.4419 42.3903 73.448 42.1821 73.448C39.1757 73.448 35.7896 72.6521 34.7548 69.3211C34.6385 68.9476 34.5527 68.5434 34.4976 68.1087C33.7935 62.2734 31.4238 60.3507 28.3194 60.3507H28.2582C26.7887 60.3324 25.1477 60.7426 23.4332 61.3855C19.9247 62.6898 17.2183 64.3797 14.4016 64.4042C13.0546 64.3797 11.6769 63.9695 10.1706 62.9347C9.52153 62.255 9.24599 61.4958 9.20312 60.7426L9.23374 59.9282L9.27048 58.9914L9.57663 50.7803C9.72971 51.2212 9.98076 51.6559 10.3726 52.0662C11.5054 52.8438 12.5647 53.2724 13.5934 53.4439C16.857 54.0011 19.8267 52.0111 23.8251 50.517C29.091 48.5515 33.6588 48.7046 34.6875 57.2463C35.6549 65.2247 47.6256 61.906 47.6256 61.906C47.6256 61.906 59.4615 56.4687 61.0841 66.0452C63.6681 78.9833 74.2794 70.2457 74.2794 70.2457C74.2794 70.2457 92.6487 50.0639 102.195 39.5751C103.732 37.8728 105.048 36.4339 106.015 35.3685C106.518 34.7439 106.879 34.1745 107.118 33.6602Z" fill="url(#paint12_linear_514_905)" stroke="black" stroke-width="3" stroke-miterlimit="10"/>
<path d="M107.693 32.276L107.209 42.2689L107.123 44.0263C106.909 44.6753 106.487 45.404 105.819 46.2306C98.8879 53.8538 74.0894 81.1077 74.0894 81.1077C74.0894 81.1077 70.5196 84.0468 67.0172 83.9856C70.4645 83.9427 73.8996 81.1077 73.8996 81.1077C73.8996 81.1077 98.7042 53.8538 105.629 46.2306C106.695 44.9141 107.13 43.8365 107.123 42.9608V33.6537C106.885 34.1681 106.523 34.7375 106.021 35.356C105.054 36.4214 103.737 37.8603 102.201 39.5625C92.6546 50.0453 74.2853 70.2331 74.2853 70.2331C74.2853 70.2331 63.674 78.9647 61.09 66.0327C59.4735 56.4562 47.6315 61.8935 47.6315 61.8935C47.6315 61.8935 35.6608 65.2122 34.6934 57.2338C33.6586 48.6982 29.0907 48.539 23.831 50.5045C19.8326 51.9985 16.8629 53.9885 13.5993 53.4313C12.5645 53.2538 11.5113 52.8313 10.3785 52.0536C9.98665 51.6495 9.72947 51.2087 9.58252 50.7678L9.61314 49.9963C9.38658 47.6328 11.5113 45.2631 11.5113 45.2631L41.2083 15.3763C41.2083 15.3763 45.121 10.5819 48.5499 10.5023C49.2418 10.4839 49.9154 10.6554 50.5277 11.1024C55.8976 15.5171 51.9299 19.5645 59.6144 19.8155C60.0001 19.8278 60.4165 19.8278 60.8696 19.8217C60.9798 19.8217 61.09 19.8155 61.2064 19.8155C62.2289 19.791 63.4168 19.7176 64.7884 19.5829C68.0397 19.2767 70.6053 18.8726 72.7362 18.8236C72.9688 18.8175 73.2015 18.8175 73.422 18.8236C75.761 18.8603 77.5734 19.4237 79.245 21.1932C81.0513 23.0914 82.2209 27.8797 83.9966 29.1471C85.3987 30.1452 86.9846 30.5248 88.6134 30.5493H88.6807C91.9872 30.5799 95.5018 29.1961 98.1593 28.7001C98.5022 28.6083 99.1084 28.5348 99.8309 28.5165C99.935 28.5103 100.039 28.5103 100.149 28.5103C100.327 28.5103 100.523 28.5165 100.719 28.5226C103.682 28.6083 107.864 29.4655 107.693 32.276Z" fill="url(#paint13_linear_514_905)" stroke="black" stroke-width="3" stroke-miterlimit="10"/>
<path d="M14.3955 64.3982C12.9871 64.4104 11.5482 64.0063 9.97458 62.9286C8.80507 61.704 8.85405 60.2406 9.2643 58.9854L9.22756 59.9222L9.19695 60.7366C9.23982 61.4897 9.51535 62.2428 10.1644 62.9286C11.6768 63.9634 13.0484 64.3737 14.3955 64.3982Z" fill="url(#paint14_linear_514_905)" stroke="black" stroke-width="3" stroke-miterlimit="10"/>
<path d="M42.1698 73.442C38.7776 73.4849 34.8344 72.5419 34.2955 68.1027C33.6036 62.3898 31.3197 60.4243 28.3071 60.3447C31.4115 60.3447 33.7751 62.2674 34.4853 68.1027C34.5404 68.5374 34.6262 68.9477 34.7425 69.3151C35.7773 72.646 39.1634 73.442 42.1698 73.442Z" fill="url(#paint15_linear_514_905)" stroke="black" stroke-width="3" stroke-miterlimit="10"/>
<path d="M67.0113 83.9859C64.4151 84.0287 61.8128 82.4735 60.6922 76.9014C59.9636 72.5969 57.1715 71.3294 54.3242 71.2314C57.2449 71.2743 60.1412 72.505 60.8821 76.9014C61.1209 78.0954 61.427 79.0996 61.7883 79.9507C63.0741 82.9694 65.0274 83.9614 67.0113 83.9859Z" fill="url(#paint16_linear_514_905)" stroke="black" stroke-width="3" stroke-miterlimit="10"/>
<path d="M102.195 39.5693C92.6486 50.052 74.2793 70.2399 74.2793 70.2399C74.2793 70.2399 63.668 78.9714 61.084 66.0395C59.4675 56.4629 47.6254 61.9002 47.6254 61.9002C47.6254 61.9002 35.6548 65.219 34.6873 57.2406C33.6525 48.705 29.0847 48.5458 23.825 50.5113C19.8266 52.0053 16.8569 53.9953 13.5933 53.4381L40.6145 26.2393C40.6145 26.2393 46.2722 19.3141 49.9277 21.9715C56.2284 27.1578 49.6644 31.8297 64.1884 30.452C71.5117 29.754 75.3447 28.5783 78.6512 32.0624C80.4575 33.9605 81.627 38.7488 83.4027 40.0163C87.6705 43.0656 93.5854 40.3102 97.5654 39.5693C98.3247 39.3734 100.26 39.2876 102.195 39.5693Z" fill="url(#paint17_linear_514_905)" stroke="black" stroke-width="3" stroke-miterlimit="10"/>
<path d="M107.117 33.6602C106.879 34.1746 106.517 34.744 106.015 35.3625C105.048 36.4279 103.731 37.8668 102.194 39.569C92.6484 50.0518 74.2791 70.2396 74.2791 70.2396C74.2791 70.2396 63.6678 78.9712 61.0839 66.0392C59.4674 56.4626 47.6253 61.9 47.6253 61.9C47.6253 61.9 35.6546 65.2187 34.6872 57.2403C33.6524 48.7047 29.0845 48.5455 23.8248 50.511C19.8264 52.005 16.8567 53.995 13.5931 53.4378C12.5583 53.2603 11.5051 52.8378 10.3724 52.0601C9.98047 51.656 9.7233 51.2152 9.57635 50.7743C8.70075 48.1903 11.3153 45.2574 11.3153 45.2574L41.0062 15.3705C41.0062 15.3705 45.072 10.3986 48.5376 10.4965C49.1622 10.5088 49.7684 10.6925 50.3194 11.0966C55.7323 15.5542 51.6543 19.6261 59.6021 19.8098C59.9878 19.822 60.4042 19.822 60.8573 19.8159C60.9675 19.8159 61.0777 19.8098 61.1941 19.8098C62.1738 19.773 63.3004 19.6996 64.5863 19.5771C67.9356 19.2587 70.5502 18.8423 72.7239 18.8178C72.9565 18.8117 73.1892 18.8117 73.4097 18.8178C75.6568 18.8852 77.4142 19.4669 79.0429 21.1875C80.8492 23.0856 82.0248 27.8739 83.8006 29.1414C85.2579 30.1762 86.905 30.5436 88.6011 30.5436H88.6684C91.9259 30.5252 95.3487 29.1781 97.9572 28.6944C98.3307 28.5964 99.0042 28.5168 99.8186 28.5107C99.9227 28.5046 100.027 28.5046 100.137 28.5046C100.315 28.5046 100.51 28.5107 100.706 28.5168C104.117 28.6577 108.911 29.8149 107.117 33.6602Z" fill="url(#paint18_linear_514_905)" stroke="black" stroke-width="3" stroke-miterlimit="10"/>
<path d="M34.4976 55.875V68.8743" stroke="black" stroke-width="3" stroke-miterlimit="10"/>
<path d="M60.668 64.3984V77.4039" stroke="black" stroke-width="3" stroke-miterlimit="10"/>
<path d="M107.118 33.6603V31.1621" stroke="black" stroke-width="3" stroke-miterlimit="10"/>
<path d="M43.4824 41.4799C48.9963 40.3402 52.8781 36.5707 52.1526 33.0603C51.4271 29.5499 46.369 27.628 40.855 28.7676C35.341 29.9072 31.4592 33.6768 32.1848 37.1872C32.9103 40.6976 37.9684 42.6195 43.4824 41.4799Z" fill="#3C3C3B" stroke="black" stroke-width="3" stroke-miterlimit="10"/>
<path d="M72.0541 52.6967C77.5681 51.557 81.4499 47.7875 80.7244 44.2771C79.9989 40.7667 74.9408 38.8448 69.4268 39.9844C63.9128 41.124 60.031 44.8936 60.7565 48.404C61.4821 51.9144 66.5402 53.8363 72.0541 52.6967Z" fill="#3C3C3B" stroke="black" stroke-width="3" stroke-miterlimit="10"/>
<path d="M16.1451 49.528C17.2943 49.2905 18.1032 48.5046 17.952 47.7727C17.8007 47.0408 16.7465 46.6401 15.5973 46.8776C14.4482 47.1151 13.6392 47.9009 13.7905 48.6328C13.9418 49.3647 14.996 49.7655 16.1451 49.528Z" fill="#3C3C3B" stroke="black" stroke-width="3" stroke-miterlimit="10"/>
<path d="M47.7823 16.9215C48.9315 16.684 49.7404 15.8982 49.5892 15.1663C49.4379 14.4344 48.3837 14.0336 47.2345 14.2711C46.0854 14.5086 45.2764 15.2945 45.4277 16.0264C45.579 16.7583 46.6332 17.159 47.7823 16.9215Z" fill="#3C3C3B" stroke="black" stroke-width="3" stroke-miterlimit="10"/>
<path d="M72.1158 25.0709C73.265 24.8334 74.0739 24.0476 73.9227 23.3157C73.7714 22.5838 72.7172 22.183 71.568 22.4205C70.4189 22.658 69.6099 23.4439 69.7612 24.1758C69.9125 24.9077 70.9667 25.3084 72.1158 25.0709Z" fill="#3C3C3B" stroke="black" stroke-width="3" stroke-miterlimit="10"/>
<path d="M100.11 34.0914C101.26 33.8539 102.069 33.0681 101.917 32.3362C101.766 31.6043 100.712 31.2035 99.5627 31.4411C98.4135 31.6786 97.6046 32.4644 97.7558 33.1963C97.9071 33.9282 98.9613 34.3289 100.11 34.0914Z" fill="#3C3C3B" stroke="black" stroke-width="3" stroke-miterlimit="10"/>
<path d="M69.6417 69.1149C70.7909 68.8774 71.5998 68.0915 71.4485 67.3596C71.2973 66.6278 70.2431 66.227 69.0939 66.4645C67.9448 66.702 67.1358 67.4878 67.2871 68.2197C67.4383 68.9516 68.4925 69.3524 69.6417 69.1149Z" fill="#3C3C3B" stroke="black" stroke-width="3" stroke-miterlimit="10"/>
<path d="M42.4435 59.5143C43.5926 59.2768 44.4016 58.4909 44.2503 57.7591C44.099 57.0272 43.0448 56.6264 41.8957 56.8639C40.7465 57.1014 39.9376 57.8873 40.0888 58.6191C40.2401 59.351 41.2943 59.7518 42.4435 59.5143Z" fill="#3C3C3B" stroke="black" stroke-width="3" stroke-miterlimit="10"/>
<path d="M223.389 120.48L276.605 113.493C276.605 113.493 281.001 119.188 273.758 123.584C266.514 127.98 242.187 142.731 242.187 142.731L223.389 145.058V120.48Z" fill="url(#paint19_linear_514_905)" stroke="black" stroke-width="3" stroke-miterlimit="10"/>
<path d="M223.389 145.063C227.461 145.063 230.762 139.561 230.762 132.774C230.762 125.987 227.461 120.485 223.389 120.485C219.318 120.485 216.017 125.987 216.017 132.774C216.017 139.561 219.318 145.063 223.389 145.063Z" fill="#3C3C3B" stroke="black" stroke-width="3" stroke-miterlimit="10"/>
<path d="M223.389 180.676L240.466 171.363C240.466 171.363 239.303 167.481 243.963 165.932C248.622 164.377 294.031 143.809 294.031 143.809C294.031 143.809 298.691 142.254 301.795 146.528C304.9 150.796 306.063 155.07 304.514 155.841C302.959 156.619 255.609 180.682 255.609 180.682C255.609 180.682 250.661 183.524 243.185 178.741L224.553 182.428L223.389 180.676Z" fill="url(#paint20_linear_514_905)" stroke="black" stroke-width="3" stroke-miterlimit="10"/>
</g>
<defs>
<filter id="filter0_d_514_905" x="-16.4985" y="0.995117" width="401.879" height="246.506" filterUnits="userSpaceOnUse" color-interpolation-filters="sRGB">
<feFlood flood-opacity="0" result="BackgroundImageFix"/>
<feColorMatrix in="SourceAlpha" type="matrix" values="0 0 0 0 0 0 0 0 0 0 0 0 0 0 0 0 0 0 127 0" result="hardAlpha"/>
<feOffset dy="16"/>
<feGaussianBlur stdDeviation="12"/>
<feComposite in2="hardAlpha" operator="out"/>
<feColorMatrix type="matrix" values="0 0 0 0 0 0 0 0 0 0 0 0 0 0 0 0 0 0 0.3 0"/>
<feBlend mode="normal" in2="BackgroundImageFix" result="effect1_dropShadow_514_905"/>
<feBlend mode="normal" in="SourceGraphic" in2="effect1_dropShadow_514_905" result="shape"/>
</filter>
<linearGradient id="paint0_linear_514_905" x1="330.439" y1="74.0166" x2="330.439" y2="131.874" gradientUnits="userSpaceOnUse">
<stop stop-color="#CFCFCF"/>
<stop offset="1" stop-color="#787878"/>
</linearGradient>
<linearGradient id="paint1_linear_514_905" x1="324.843" y1="79.1904" x2="324.843" y2="137.047" gradientUnits="userSpaceOnUse">
<stop stop-color="#CFCFCF"/>
<stop offset="1" stop-color="#787878"/>
</linearGradient>
<linearGradient id="paint2_linear_514_905" x1="312.879" y1="91.5039" x2="331.291" y2="124.24" gradientUnits="userSpaceOnUse">
<stop stop-color="#CFCFCF"/>
<stop offset="1" stop-color="#787878"/>
</linearGradient>
<linearGradient id="paint3_linear_514_905" x1="315.193" y1="94.4561" x2="315.193" y2="127.392" gradientUnits="userSpaceOnUse">
<stop stop-color="#CFCFCF"/>
<stop offset="1" stop-color="#787878"/>
</linearGradient>
<linearGradient id="paint4_linear_514_905" x1="298.674" y1="94.4561" x2="298.674" y2="155.84" gradientUnits="userSpaceOnUse">
<stop stop-color="#CFCFCF"/>
<stop offset="1" stop-color="#787878"/>
</linearGradient>
<linearGradient id="paint5_linear_514_905" x1="291.885" y1="100.053" x2="291.885" y2="158.608" gradientUnits="userSpaceOnUse">
<stop stop-color="#CFCFCF"/>
<stop offset="1" stop-color="#787878"/>
</linearGradient>
<linearGradient id="paint6_linear_514_905" x1="243.28" y1="105.704" x2="243.28" y2="178.416" gradientUnits="userSpaceOnUse">
<stop stop-color="#CFCFCF"/>
<stop offset="1" stop-color="#787878"/>
</linearGradient>
<linearGradient id="paint7_linear_514_905" x1="209.376" y1="143.619" x2="209.376" y2="179.716" gradientUnits="userSpaceOnUse">
<stop stop-color="#CFCFCF"/>
<stop offset="1" stop-color="#787878"/>
</linearGradient>
<linearGradient id="paint8_linear_514_905" x1="116.994" y1="35.5273" x2="116.994" y2="197.391" gradientUnits="userSpaceOnUse">
<stop stop-color="#CFCFCF"/>
<stop offset="1" stop-color="#787878"/>
</linearGradient>
<linearGradient id="paint9_linear_514_905" x1="145.308" y1="44.1367" x2="145.308" y2="206" gradientUnits="userSpaceOnUse">
<stop stop-color="#CFCFCF"/>
<stop offset="1" stop-color="#787878"/>
</linearGradient>
<linearGradient id="paint10_linear_514_905" x1="21.321" y1="60.3496" x2="21.321" y2="64.4052" gradientUnits="userSpaceOnUse">
<stop stop-color="#CFCFCF"/>
<stop offset="1" stop-color="#787878"/>
</linearGradient>
<linearGradient id="paint11_linear_514_905" x1="48.3818" y1="71.2256" x2="48.3818" y2="73.436" gradientUnits="userSpaceOnUse">
<stop stop-color="#CFCFCF"/>
<stop offset="1" stop-color="#787878"/>
</linearGradient>
<linearGradient id="paint12_linear_514_905" x1="58.1604" y1="33.6602" x2="58.1604" y2="83.992" gradientUnits="userSpaceOnUse">
<stop stop-color="#CFCFCF"/>
<stop offset="1" stop-color="#787878"/>
</linearGradient>
<linearGradient id="paint13_linear_514_905" x1="58.6403" y1="10.501" x2="58.6403" y2="83.9865" gradientUnits="userSpaceOnUse">
<stop stop-color="#CFCFCF"/>
<stop offset="1" stop-color="#787878"/>
</linearGradient>
<linearGradient id="paint14_linear_514_905" x1="11.6977" y1="58.9854" x2="11.6977" y2="64.3984" gradientUnits="userSpaceOnUse">
<stop stop-color="#CFCFCF"/>
<stop offset="1" stop-color="#787878"/>
</linearGradient>
<linearGradient id="paint15_linear_514_905" x1="35.2385" y1="60.3447" x2="35.2385" y2="73.4434" gradientUnits="userSpaceOnUse">
<stop stop-color="#CFCFCF"/>
<stop offset="1" stop-color="#787878"/>
</linearGradient>
<linearGradient id="paint16_linear_514_905" x1="60.6677" y1="71.2314" x2="60.6677" y2="83.9867" gradientUnits="userSpaceOnUse">
<stop stop-color="#CFCFCF"/>
<stop offset="1" stop-color="#787878"/>
</linearGradient>
<linearGradient id="paint17_linear_514_905" x1="57.8939" y1="21.3643" x2="57.8939" y2="73.1221" gradientUnits="userSpaceOnUse">
<stop stop-color="#CFCFCF"/>
<stop offset="1" stop-color="#787878"/>
</linearGradient>
<linearGradient id="paint18_linear_514_905" x1="58.4519" y1="10.4951" x2="58.4519" y2="73.1218" gradientUnits="userSpaceOnUse">
<stop stop-color="#CFCFCF"/>
<stop offset="1" stop-color="#787878"/>
</linearGradient>
<linearGradient id="paint19_linear_514_905" x1="250.658" y1="113.493" x2="250.658" y2="145.058" gradientUnits="userSpaceOnUse">
<stop stop-color="#CFCFCF"/>
<stop offset="1" stop-color="#787878"/>
</linearGradient>
<linearGradient id="paint20_linear_514_905" x1="264.293" y1="143.533" x2="264.293" y2="182.428" gradientUnits="userSpaceOnUse">
<stop stop-color="#CFCFCF"/>
<stop offset="1" stop-color="#787878"/>
</linearGradient>
</defs>
</svg>
