<svg width="393" height="216" viewBox="0 0 393 216" fill="none" xmlns="http://www.w3.org/2000/svg">
<g clip-path="url(#clip0_709_4080)">
<path d="M382.813 138.755L363.375 131.129C351.793 126.587 343.023 117.25 339.676 105.896L332.576 81.8157C331.245 77.3081 335.999 73.4613 340.566 75.3508L357.504 82.375C369.662 87.4164 379.017 97.1181 383.16 108.98L391.057 131.604C392.718 136.382 387.752 140.687 382.813 138.755Z" fill="#9D9D9C" stroke="black" stroke-width="2" stroke-miterlimit="10"/>
<path d="M376.56 143.728L357.122 136.103C345.54 131.561 336.77 122.224 333.423 110.87L326.323 86.7894C324.993 82.2817 329.746 78.4349 334.313 80.3244L351.251 87.3486C363.41 92.3901 372.764 102.092 376.907 113.954L384.804 136.577C386.465 141.356 381.491 145.669 376.56 143.728Z" fill="#9D9D9C" stroke="black" stroke-width="2" stroke-miterlimit="10"/>
<path d="M327.763 81.4766L335.194 75.6387" stroke="black" stroke-width="2" stroke-miterlimit="10"/>
<path d="M382.567 143.119L389.794 137.314" stroke="black" stroke-width="2" stroke-miterlimit="10"/>
<path d="M363.158 129.845C369.319 126.959 370.572 116.629 365.956 106.772C361.34 96.9151 352.603 91.2636 346.441 94.1492C340.279 97.0348 339.026 107.365 343.642 117.222C348.259 127.079 356.996 132.731 363.158 129.845Z" fill="#9D9D9C" stroke="black" stroke-width="3" stroke-miterlimit="10"/>
<path d="M336.605 92.9615C337.705 92.8197 338.435 91.4482 338.235 89.898C338.035 88.3479 336.982 87.2061 335.882 87.3479C334.782 87.4896 334.052 88.8611 334.252 90.4113C334.452 91.9614 335.505 93.1032 336.605 92.9615Z" fill="#9D9D9C" stroke="black" stroke-width="3" stroke-miterlimit="10"/>
<path d="M375.317 136.743C376.417 136.601 377.147 135.229 376.947 133.679C376.747 132.129 375.694 130.987 374.594 131.129C373.494 131.271 372.764 132.642 372.964 134.193C373.163 135.743 374.217 136.884 375.317 136.743Z" fill="#9D9D9C" stroke="black" stroke-width="3" stroke-miterlimit="10"/>
<path d="M43.0084 28.0293L41.7544 39.2392" stroke="black" stroke-width="3" stroke-miterlimit="10"/>
<path d="M59.2854 34.1123L58.3618 46.466" stroke="black" stroke-width="3" stroke-miterlimit="10"/>
<path d="M300.971 123.283L349.369 103.456C349.369 103.456 369.561 110.862 358.529 121.114L314.393 140.899L300.971 123.283Z" fill="#9D9D9C" stroke="black" stroke-width="3" stroke-miterlimit="10"/>
<path d="M236.762 199.397L311.664 154.278C318.35 148.101 319.307 137.535 315.401 131.527C314.477 130.104 312.647 129.562 311.08 130.231L302.598 133.874C301.717 134.256 300.717 134.256 299.836 133.874C294.71 131.663 289.016 131.104 283.542 132.29L184.051 153.862C175.519 155.557 172.655 166.267 179.103 172.003C179.239 172.122 179.383 172.232 179.535 172.325L215.495 195.796C221.469 199.693 215.453 199.295 231.391 200.549C232.941 200.668 236.313 199.786 237.635 198.973" fill="#9D9D9C"/>
<path d="M236.762 199.397L311.664 154.278C318.35 148.101 319.307 137.535 315.401 131.527C314.477 130.104 312.647 129.562 311.08 130.231L302.598 133.874C301.717 134.256 300.717 134.256 299.836 133.874C294.71 131.663 289.016 131.104 283.542 132.29L184.051 153.862C175.519 155.557 172.655 166.267 179.103 172.003C179.239 172.122 179.383 172.232 179.535 172.325L215.495 195.796C221.469 199.693 215.453 199.295 231.391 200.549C232.941 200.668 236.313 199.786 237.635 198.973" stroke="black" stroke-width="3" stroke-miterlimit="10"/>
<path d="M313.037 145.542L228.679 189.585L179.027 161.412C172.316 155.726 175.146 144.805 183.772 143.093L283.263 121.521C289.219 120.233 295.438 121.004 300.895 123.724L312.046 129.274C318.519 132.502 319.078 141.543 313.037 145.542Z" fill="#9D9D9C" stroke="black" stroke-width="3" stroke-miterlimit="10"/>
<path d="M241.711 194.415C234.754 207.7 211.623 199.066 193.999 192.457C172.393 184.349 159.327 167.716 163.589 156.769C164.826 153.583 169.588 148.304 171.96 146.999C195.041 134.307 209.047 158.285 207.742 161.124C210.513 156.311 261.097 157.379 241.711 194.415Z" fill="#9D9D9C" stroke="black" stroke-width="3" stroke-miterlimit="10"/>
<path d="M21.521 25.7412L40.6447 94.4324C40.6447 94.4324 52.346 127.435 55.3455 152.99C58.345 178.536 92.9829 214.886 139.068 199.253C185.153 183.62 201.15 177.189 201.15 177.189C201.15 177.189 206.488 153.075 182.077 155.345L129.485 174.037C129.485 174.037 102.702 182.663 90.6697 168.699C78.638 154.735 77.85 132.341 73.7575 110.523C69.665 88.7046 53.0917 40.6284 53.4136 36.2987C53.7356 31.9689 21.521 25.7412 21.521 25.7412Z" fill="#9D9D9C" stroke="black" stroke-width="3" stroke-miterlimit="10"/>
<path d="M50.4819 36.96L69.6057 105.651C69.6057 105.651 81.307 138.654 84.3064 164.209C87.3059 189.763 122.071 226.46 168.029 210.472C195.202 201.016 213.063 194.61 222.375 191.229C229.798 188.535 233.017 179.562 228.637 172.987C226.052 169.114 220.909 166.149 211.038 166.556L158.446 185.247C158.446 185.247 131.662 193.873 119.631 179.909C107.599 165.946 106.811 143.551 102.718 121.733C98.6259 99.9149 82.0526 51.8387 82.3746 47.5089C82.6966 43.1792 50.4819 36.96 50.4819 36.96Z" fill="#9D9D9C" stroke="black" stroke-width="3" stroke-miterlimit="10"/>
<path d="M21.7242 51.8807C20.2414 51.7791 18.5553 52.0841 16.7929 52.5925C12.9376 53.7109 9.91273 55.3123 6.90479 55.0412C9.85341 55.2361 12.819 53.677 16.598 52.584C18.4451 52.0502 20.1906 51.7452 21.7242 51.8807Z" fill="#9D9D9C" stroke="black" stroke-width="3" stroke-miterlimit="10" stroke-linecap="round"/>
<path d="M47.7871 65.2685C44.3131 65.0652 40.8222 66.3615 40.8222 66.3615C40.8222 66.3615 38.5769 66.8021 35.9248 66.7005C38.4837 66.7767 40.6274 66.3446 40.6274 66.3446C40.6274 66.3446 44.2538 65.0059 47.7871 65.2685Z" fill="#9D9D9C" stroke="black" stroke-width="3" stroke-miterlimit="10" stroke-linecap="round"/>
<path d="M106.192 32.1724L105.625 39.8405C105.565 40.7556 105.023 41.8571 103.803 43.145C95.9654 50.5844 67.8772 77.1729 67.8772 77.1729C67.8772 77.1729 64.0558 79.8673 60.4463 79.647C58.3789 79.4691 56.4046 78.2744 55.2947 75.0122C54.9812 74.0972 54.7439 73.0211 54.5829 71.7501C54.1508 67.0899 51.2106 65.5817 48.1603 65.3021C48.0587 65.2936 47.9655 65.2852 47.8722 65.2767L47.7875 65.2682C44.2542 65.0055 40.6278 66.3528 40.6278 66.3528C40.6278 66.3528 38.4841 66.7764 35.9252 66.7086C35.7134 66.7002 35.4846 66.6917 35.2643 66.6663C32.1123 66.429 28.6384 65.336 27.8165 61.7688C27.7233 61.3706 27.664 60.9385 27.647 60.4809C27.3589 54.321 25.0373 52.1265 21.7837 51.8808L21.7243 51.8723C20.1907 51.7367 18.4368 52.0417 16.5981 52.5756C12.8276 53.6686 9.86204 55.2276 6.90494 55.0327C5.49841 54.9056 4.09188 54.3634 2.59215 53.1687C1.96514 52.4061 1.73637 51.5927 1.75331 50.7962L1.84652 49.9489L1.95667 48.9745L2.91412 40.3997C3.04122 40.8742 3.26999 41.3487 3.65128 41.8063C4.7782 42.7044 5.84581 43.2721 6.92189 43.5009C10.6077 44.2974 13.5563 42.4841 17.8606 41.2301C23.5206 39.5863 28.291 40.1032 28.7062 49.1185C29.0959 57.5408 41.8903 54.9989 41.8903 54.9989C41.8903 54.9989 54.7015 50.237 55.6505 60.3793C57.3536 74.1226 69.1312 65.802 69.1312 65.802C69.1312 65.802 89.9326 46.1106 100.736 35.8836C102.481 34.2229 103.964 32.8163 105.065 31.7826C105.633 31.181 106.192 32.1724 106.192 32.1724Z" fill="#9D9D9C" stroke="black" stroke-width="3" stroke-miterlimit="10" stroke-linecap="square" stroke-linejoin="round"/>
<path d="M107.048 28.6898L105.76 39.1117L105.531 40.9419C105.252 41.6028 104.76 42.3315 103.998 43.1449C96.1514 50.5843 68.0717 77.1728 68.0717 77.1728C68.0717 77.1728 64.1063 79.9689 60.4459 79.63C64.0554 79.8503 67.8768 77.1558 67.8768 77.1558C67.8768 77.1558 95.965 50.5673 103.803 43.128C105.014 41.8401 105.557 40.7386 105.624 39.8235L106.04 34.2312C105.751 34.7566 105.633 31.1725 105.065 31.7825C103.972 32.8162 102.481 34.2312 100.735 35.8835C89.9237 46.1105 69.1308 65.8019 69.1308 65.8019C69.1308 65.8019 57.3448 74.114 55.6502 60.3791C54.6927 50.2453 41.8814 55.0072 41.8814 55.0072C41.8814 55.0072 29.0955 57.5491 28.6973 49.1269C28.2821 40.1115 23.5118 39.5947 17.8518 41.2385C13.5475 42.4925 10.2853 44.3396 6.91304 43.5093C5.84543 43.2466 4.76935 42.7128 3.64243 41.8146C3.26114 41.3571 3.03237 40.8826 2.90527 40.4081L2.99848 39.6032V39.5947C2.95611 37.1036 5.36246 34.782 5.36246 34.782L38.7718 5.82103C38.7718 5.82103 43.2456 1.11 46.8297 1.29641C47.5584 1.3303 48.2447 1.56754 48.8463 2.07593C54.125 7.11741 49.6597 11.0404 57.6837 11.9047C58.0904 11.9471 58.5225 11.9809 58.997 12.0064C59.1156 12.0148 59.2258 12.0148 59.3529 12.0233C60.429 12.0742 61.6745 12.0911 63.1234 12.0572C66.555 11.9894 69.2664 11.7691 71.5033 11.8793C71.749 11.8962 71.9947 11.9132 72.2235 11.9301C74.6637 12.1504 76.5193 12.8791 78.1377 14.8618C79.8747 16.9885 80.7304 22.0978 82.4928 23.5636C83.8824 24.716 85.5093 25.2413 87.2123 25.3938L87.2886 25.4023C90.7456 25.6904 94.5331 24.5211 97.3461 24.2076C97.719 24.1398 98.3544 24.1059 99.117 24.1398C99.2272 24.1398 99.3373 24.1483 99.4559 24.1568C99.6423 24.1737 99.8457 24.1906 100.049 24.2076C103.142 24.538 107.455 25.7582 107.048 28.6898Z" fill="#9D9D9C" stroke="black" stroke-width="3" stroke-miterlimit="10" stroke-linecap="round"/>
<path d="M6.90498 55.0407C5.43067 54.9475 3.95635 54.4137 2.38884 53.1596C1.26192 51.787 1.42291 50.2619 1.94824 48.9824L1.83809 49.9568L1.74488 50.8041C1.72794 51.5921 1.95671 52.4055 2.58372 53.1766C4.09192 54.3713 5.49845 54.9051 6.90498 55.0407Z" fill="#9D9D9C" stroke="black" stroke-width="3" stroke-miterlimit="10" stroke-linecap="round"/>
<path d="M35.2726 66.6664C31.714 66.4461 27.6638 65.1497 27.452 60.4641C27.1724 54.4313 24.9355 52.1944 21.792 51.8809C25.0372 52.1266 27.3673 54.3126 27.6554 60.481C27.6808 60.9386 27.7401 61.3707 27.8248 61.7689C28.6467 65.3361 32.1207 66.4376 35.2726 66.6664Z" fill="#9D9D9C" stroke="black" stroke-width="3" stroke-miterlimit="10" stroke-linecap="round"/>
<path d="M60.4459 79.6382C57.7261 79.4772 55.1248 77.647 54.3877 71.7328C53.964 67.1743 51.134 65.6322 48.1685 65.3018C51.2188 65.5729 54.1589 67.0896 54.591 71.7498C54.752 73.0207 54.9893 74.0968 55.3028 75.0119C56.4043 78.2656 58.37 79.4603 60.4459 79.6382Z" fill="#9D9D9C" stroke="black" stroke-width="3" stroke-miterlimit="10" stroke-linecap="round"/>
<path d="M100.727 35.9001C89.9153 46.1271 69.1224 65.8185 69.1224 65.8185C69.1224 65.8185 57.3363 74.1306 55.6417 60.3958C54.6927 50.245 41.8815 55.0069 41.8815 55.0069C41.8815 55.0069 29.0956 57.5488 28.6974 49.1266C28.2822 40.1112 23.5118 39.5944 17.8518 41.2381C13.5475 42.4922 10.2854 44.3393 6.91309 43.5089L37.3145 17.1492C37.3145 17.1492 43.7794 10.3453 47.3974 13.4126C53.5912 19.3268 46.3552 23.7074 61.6576 23.4023C69.3766 23.2413 73.4776 22.3093 76.6719 26.2154C78.4089 28.3421 79.2647 33.4514 81.0271 34.9172C85.2551 38.442 91.6608 36.0187 95.8888 35.5527C96.6938 35.3833 98.7273 35.4426 100.727 35.9001Z" fill="#9D9D9C" stroke="black" stroke-width="3" stroke-miterlimit="10" stroke-linecap="round"/>
<path d="M106.345 30.0963C106.057 30.6217 105.633 31.1809 105.057 31.7909C103.964 32.8246 102.473 34.2397 100.727 35.8919C89.9154 46.1189 69.1225 65.8103 69.1225 65.8103C69.1225 65.8103 57.3365 74.1224 55.6418 60.3876C54.6929 50.2453 41.8816 55.0072 41.8816 55.0072C41.8816 55.0072 29.0957 57.5491 28.6975 49.1268C28.2823 40.1115 23.512 39.5946 17.8519 41.2384C13.5476 42.4924 10.2855 44.3396 6.91321 43.5092C5.8456 43.2465 4.76952 42.7127 3.64261 41.8146C3.26132 41.357 3.03254 40.8825 2.90545 40.4081C2.18524 37.6289 5.15929 34.7735 5.15929 34.7735L38.5686 5.80401C38.5686 5.80401 43.2119 0.91505 46.8299 1.28787C47.4823 1.35565 48.1008 1.58442 48.6516 2.05892C53.9727 7.14276 49.3802 11.0912 57.6839 11.9046C58.0906 11.947 58.5227 11.9809 58.9972 12.0063C59.1158 12.0148 59.226 12.0148 59.3531 12.0233C60.3868 12.0656 61.5645 12.0741 62.9202 12.0487C66.4535 11.9809 69.2242 11.7436 71.495 11.8877C71.7407 11.9046 71.9864 11.9216 72.2152 11.9385C74.5622 12.1842 76.3585 12.9299 77.926 14.8617C79.663 16.9885 80.5273 22.0977 82.2897 23.5636C83.7386 24.7668 85.4247 25.2751 87.204 25.4107L87.2803 25.4192C90.695 25.648 94.3807 24.5126 97.1514 24.2075C97.5497 24.1313 98.2614 24.1059 99.1087 24.1567C99.2189 24.1567 99.329 24.1652 99.4476 24.1736C99.634 24.1906 99.8374 24.2075 100.041 24.2245C103.591 24.6227 108.522 26.2072 106.345 30.0963Z" fill="#9D9D9C" stroke="black" stroke-width="3" stroke-miterlimit="10" stroke-linecap="round"/>
<path d="M28.6045 47.6777L27.5962 61.2855" stroke="black" stroke-width="3" stroke-miterlimit="10" stroke-linecap="round"/>
<path d="M55.3366 58.6426L54.3198 72.2503" stroke="black" stroke-width="3" stroke-miterlimit="10" stroke-linecap="round"/>
<path d="M106.345 30.0967L106.54 27.4785" stroke="black" stroke-width="3" stroke-miterlimit="10" stroke-linecap="round"/>
<path d="M39.1323 33.3191C44.9929 32.5561 49.3501 28.9132 48.8644 25.1824C48.3787 21.4517 43.2339 19.0459 37.3733 19.8089C31.5127 20.5719 27.1555 24.2148 27.6412 27.9456C28.1269 31.6763 33.2716 34.0821 39.1323 33.3191Z" fill="#9D9D9C" stroke="black" stroke-width="3" stroke-miterlimit="10" stroke-linecap="round"/>
<path d="M68.1601 47.282C74.0207 46.519 78.3779 42.8761 77.8922 39.1453C77.4065 35.4146 72.2618 33.0087 66.4012 33.7718C60.5405 34.5348 56.1833 38.1777 56.669 41.9084C57.1547 45.6392 62.2995 48.045 68.1601 47.282Z" fill="#9D9D9C" stroke="black" stroke-width="3" stroke-miterlimit="10" stroke-linecap="round"/>
<path d="M9.90048 39.6154C11.1209 39.4565 12.0279 38.6958 11.9264 37.9162C11.8249 37.1367 10.7533 36.6335 9.53294 36.7924C8.31256 36.9513 7.40552 37.712 7.50701 38.4916C7.60851 39.2712 8.6801 39.7743 9.90048 39.6154Z" fill="#9D9D9C" stroke="black" stroke-width="3" stroke-miterlimit="10" stroke-linecap="round"/>
<path d="M45.546 7.95332C46.7664 7.79443 47.6734 7.03367 47.5719 6.25411C47.4704 5.47455 46.3988 4.97139 45.1784 5.13028C43.9581 5.28917 43.051 6.04993 43.1525 6.82949C43.254 7.60905 44.3256 8.1122 45.546 7.95332Z" fill="#9D9D9C" stroke="black" stroke-width="3" stroke-miterlimit="10" stroke-linecap="round"/>
<path d="M70.38 18.384C71.6004 18.2251 72.5074 17.4643 72.4059 16.6848C72.3044 15.9052 71.2328 15.4021 70.0124 15.5609C68.792 15.7198 67.885 16.4806 67.9865 17.2602C68.088 18.0397 69.1596 18.5429 70.38 18.384Z" fill="#9D9D9C" stroke="black" stroke-width="3" stroke-miterlimit="10" stroke-linecap="round"/>
<path d="M98.9752 30.0012C100.196 29.8423 101.103 29.0815 101.001 28.302C100.9 27.5224 99.828 27.0192 98.6076 27.1781C97.3873 27.337 96.4802 28.0978 96.5817 28.8773C96.6832 29.6569 97.7548 30.1601 98.9752 30.0012Z" fill="#9D9D9C" stroke="black" stroke-width="3" stroke-miterlimit="10" stroke-linecap="round"/>
<path d="M64.3541 64.2815C65.5745 64.1226 66.4815 63.3618 66.38 62.5822C66.2785 61.8027 65.2069 61.2995 63.9866 61.4584C62.7662 61.6173 61.8591 62.3781 61.9606 63.1576C62.0621 63.9372 63.1337 64.4403 64.3541 64.2815Z" fill="#9D9D9C" stroke="black" stroke-width="3" stroke-miterlimit="10" stroke-linecap="round"/>
<path d="M36.6402 52.1144C37.8606 51.9556 38.7677 51.1948 38.6662 50.4152C38.5647 49.6357 37.4931 49.1325 36.2727 49.2914C35.0523 49.4503 34.1453 50.2111 34.2468 50.9906C34.3483 51.7702 35.4198 52.2733 36.6402 52.1144Z" fill="#9D9D9C" stroke="black" stroke-width="3" stroke-miterlimit="10" stroke-linecap="round"/>
<path d="M223.087 128.079L279.323 124.91C279.323 124.91 283.483 131.214 275.561 135.247C267.638 139.289 241.024 152.829 241.024 152.829L221.172 153.803L223.087 128.079Z" fill="#9D9D9C" stroke="black" stroke-width="3" stroke-miterlimit="10"/>
<path d="M229.825 141.512C230.354 134.409 227.328 128.395 223.068 128.078C218.807 127.761 214.925 133.261 214.397 140.364C213.868 147.466 216.894 153.481 221.154 153.798C225.415 154.115 229.297 148.614 229.825 141.512Z" fill="#9D9D9C" stroke="black" stroke-width="3" stroke-miterlimit="10"/>
</g>
<defs>
<clipPath id="clip0_709_4080">
<rect width="391.956" height="215.64" fill="white" transform="translate(0.278809)"/>
</clipPath>
</defs>
</svg>
