<svg width="21" height="21" viewBox="0 0 18 20" fill="none" xmlns="http://www.w3.org/2000/svg">
<path d="M10.0156 10.9844C10.0156 10.2656 10.5156 9.46875 11.5156 8.59375C12.5156 7.71875 13.0156 6.85938 13.0156 6.01562C13.0156 4.92188 12.6094 3.98438 11.7969 3.20312C11.0156 2.39063 10.0781 1.98438 8.98438 1.98438C7.89062 1.98438 6.95312 2.39063 6.17188 3.20312C5.39062 3.98438 5 4.92188 5 6.01562H7.01562C7.01562 5.48438 7.20312 5.01562 7.57812 4.60938C7.98438 4.20312 8.45312 4 8.98438 4C9.51562 4 9.98438 4.20312 10.3906 4.60938C10.7969 5.01562 11 5.48438 11 6.01562C11 6.45312 10.8438 6.84375 10.5312 7.1875C10.2188 7.53125 9.875 7.8125 9.5 8.03125C9.125 8.25 8.78125 8.625 8.46875 9.15625C8.15625 9.65625 8 10.2656 8 10.9844H10.0156ZM10.0156 14.5V12.4844H8V14.5H10.0156ZM2.98438 2.5C4.64062 0.84375 6.64062 0.015625 8.98438 0.015625C11.3281 0.015625 13.3281 0.84375 14.9844 2.5C16.6719 4.15625 17.5156 6.15625 17.5156 8.5C17.5156 10.7812 16.7812 12.9844 15.3125 15.1094C13.8438 17.2031 11.9062 18.8281 9.5 19.9844V16.9844H8.98438C6.64062 16.9844 4.64062 16.1562 2.98438 14.5C1.32812 12.8438 0.5 10.8438 0.5 8.5C0.5 6.15625 1.32812 4.15625 2.98438 2.5Z" fill="#6C7477"/>
</svg>
