<svg width="25" height="21" viewBox="0 0 25 18" fill="none" xmlns="http://www.w3.org/2000/svg">
<path d="M22.4844 9V3H14.5156V9H22.4844ZM14.5156 15V14.0156C14.5156 13.1094 13.8281 12.375 12.4531 11.8125C11.0781 11.2188 9.76562 10.9219 8.51562 10.9219C7.26562 10.9219 5.95312 11.2188 4.57812 11.8125C3.20312 12.375 2.51562 13.1094 2.51562 14.0156V15H14.5156ZM10.625 3.89062C10.0312 3.29688 9.32812 3 8.51562 3C7.70312 3 7 3.29688 6.40625 3.89062C5.8125 4.48438 5.51562 5.1875 5.51562 6C5.51562 6.8125 5.8125 7.51562 6.40625 8.10938C7 8.70312 7.70312 9 8.51562 9C9.32812 9 10.0312 8.70312 10.625 8.10938C11.2188 7.51562 11.5156 6.8125 11.5156 6C11.5156 5.1875 11.2188 4.48438 10.625 3.89062ZM22.4844 0C23.0156 0 23.4844 0.203125 23.8906 0.609375C24.2969 1.01563 24.5 1.48438 24.5 2.01562V15.9844C24.5 16.5156 24.2969 16.9844 23.8906 17.3906C23.4844 17.7969 23.0156 18 22.4844 18H2.51562C1.98438 18 1.51562 17.7969 1.10938 17.3906C0.703125 16.9844 0.5 16.5156 0.5 15.9844V2.01562C0.5 1.48438 0.703125 1.01563 1.10938 0.609375C1.51562 0.203125 1.98438 0 2.51562 0H22.4844ZM21.5 5.01562L18.5 6.98438L15.5 5.01562V3.98438L18.5 6L21.5 3.98438V5.01562Z" fill="#6C7477"/>
</svg>
