<svg width="75" height="75" viewBox="0 0 75 75" fill="none" xmlns="http://www.w3.org/2000/svg">
<path fill-rule="evenodd" clip-rule="evenodd" d="M56.5452 45.707H18.2378C15.8804 36.4735 14.669 32.5777 9.52856 24.7198L15.2256 16.9928H59.5579L65.2544 24.7198C59.7871 33.1016 59.0336 36.3757 56.5452 45.707ZM35.8199 21.02C35.8527 21.0855 35.6562 21.2819 35.6235 21.3474C35.0669 21.1837 34.3465 21.02 33.7572 21.3147C33.2006 21.5766 31.9892 21.6093 31.0724 21.8058L30.9087 21.9695C30.745 22.2637 30.614 22.5916 30.6468 22.919C30.6468 22.919 32.0547 23.05 32.2511 23.1482C32.4475 23.2792 32.9387 23.5083 33.0696 23.9012C32.9714 24.1632 32.775 24.3924 32.5458 24.6216C31.2034 25.6361 29.1734 27.4701 28.7478 28.1249C28.2894 28.7797 27.7328 29.5983 27.5363 30.3513C27.3399 31.1371 27.5691 31.53 27.7 32.0211C26.4886 32.2503 24.9498 32.3813 23.902 32.4472L23.6401 32.5454C23.6401 33.0366 23.5419 33.5932 23.6401 34.0188C24.7533 34.8701 26.1939 35.4922 27.1434 36.147C25.2117 38.2424 23.7711 40.6326 21.4792 42.3679C20.6606 42.859 19.5147 43.9072 19.1873 44.2341C18.8931 44.5283 18.9253 44.7907 18.9253 44.7907C19.2855 44.889 19.8421 44.8235 20.2023 44.8567C20.7916 44.8239 21.3482 44.2996 21.6101 43.7103C22.003 43.4483 22.2977 42.9245 22.7561 42.8262C23.6074 42.4006 23.902 41.4184 24.4586 40.764C25.048 40.2069 25.4081 39.5198 26.063 39.0942C26.9797 38.5371 27.3726 37.4566 28.2566 36.7695L29.73 37.7841C30.4831 38.0787 31.3016 37.7518 32.1201 37.7841L32.4803 37.5549C32.4475 37.0965 32.0219 36.7363 31.6618 36.5071C31.1706 36.147 30.8432 36.7691 30.3521 36.7036C29.9265 36.5399 29.3699 36.6054 29.0752 36.1797C29.861 35.7214 30.3848 35.0665 31.2361 34.7391L32.513 35.001C35.0341 34.5427 38.0136 34.117 40.4692 34.4444C41.0908 34.6081 41.5492 35.263 41.8771 35.7868C42.8266 37.2602 40.8289 37.8823 40.3059 38.9628C38.7012 40.6976 36.2133 41.9422 35.3288 44.2664C35.296 44.5611 35.1978 44.8885 35.3288 45.1836C35.8854 45.1509 36.3438 44.889 36.8349 44.6925C37.457 44.4633 37.1623 44.1032 37.195 43.743C37.1623 43.1537 37.5552 42.6953 37.8831 42.3024C38.4392 42.5316 38.6684 41.9095 38.8653 41.5821C40.044 39.7158 43.2199 38.2424 43.6124 37.915C44.0048 37.5876 44.2013 37.5549 44.2667 37.2275C44.3322 36.9 43.7429 36.0488 43.8743 35.1975C45.3149 35.6231 46.7555 36.0488 48.0647 36.8346C49.2762 37.4894 49.9647 38.7008 50.685 39.8145C51.8955 41.6476 52.9437 44.2014 54.7117 45.0531C55.1041 45.315 55.6285 45.315 55.8245 45.1841C55.6939 44.5293 55.3333 43.9726 55.3006 43.2523C55.1041 43.3506 54.875 43.416 54.679 43.3506C54.1219 43.3178 53.7622 42.6962 53.664 42.3028C53.598 41.9427 53.6967 41.4516 53.6967 41.4516C52.9105 41.1896 52.1574 40.3711 51.699 39.7163C51.2734 39.0946 50.4549 37.4248 50.5203 35.9837C48.5227 35.6236 47.2139 32.5131 47.0502 31.6946C46.9188 30.8761 47.1152 30.4504 47.2467 29.8611C46.4604 29.1408 45.5114 28.5842 44.3982 28.4205C43.3172 28.2568 39.1918 28.355 36.6707 28.6824C36.1141 28.7479 35.3611 28.8788 34.9354 28.4205C34.7062 28.224 34.608 27.6347 34.739 27.2418C34.87 26.8489 35.623 26.0958 35.9504 25.6047C36.3106 25.1136 36.8672 24.0331 37.2928 23.2801C37.653 23.411 38.2091 23.542 38.7002 23.4438C39.1914 23.3455 39.8139 23.1491 39.7484 22.7889C39.7157 22.4615 38.3737 22.1669 37.6534 22.3633C37.2933 22.396 36.8999 22.1014 36.8672 21.7085C36.8999 21.512 37.0964 21.4138 37.2273 21.3483C38.9622 21.7085 41.189 21.8722 42.7929 21.5448C44.5614 21.2174 46.6564 20.5625 47.7373 18.7945C47.1148 18.6963 46.264 18.5653 45.9034 18.5653C45.3145 19.6458 43.8411 20.628 42.4332 20.759C41.7788 20.8245 41.4837 20.4316 41.1231 20.1041C40.2063 20.9227 38.1764 20.9554 37.1619 20.7262C36.1469 20.4643 33.855 19.2201 32.8727 18.3034C32.7418 18.7945 32.6108 19.5475 32.6108 19.744C33.4298 20.2997 35.8199 21.02 35.8199 21.02Z" fill="#234B8D"/>
<path fill-rule="evenodd" clip-rule="evenodd" d="M28.3867 34.2475C28.6487 34.6731 27.9611 34.935 27.8301 35.2625C27.0771 34.8696 26.2258 34.5094 25.6692 33.7563C26.6514 33.7563 27.5682 33.8546 28.3867 34.2475Z" fill="#234B8D"/>
<path fill-rule="evenodd" clip-rule="evenodd" d="M63.4528 9.3313H58.9345V0L54.9733 1.83352L51.0111 0V2.35784H50.1603V0L46.1981 1.83352L42.2369 0V2.35784H41.3192V0.0331961L37.3579 1.86671L33.429 0.0331961V2.35784H32.5777V0L28.616 1.83352L24.687 0V2.35784H23.7375V0L19.7758 1.83352L15.8141 0V9.33176H11.2958L0 24.753C9.06937 36.1797 11.5577 47.1485 12.409 62.0786L37.3911 74.7486L62.3074 62.0782C63.1918 43.1209 67.9061 33.298 74.7168 24.7525L63.4528 9.3313ZM54.9737 4.7475L57.855 3.40511V13.162H52.1252V3.40511L54.9737 4.7475ZM46.1986 4.71476L49.0798 3.40511V13.162H43.3501V3.40511L46.1986 4.71476ZM37.3584 4.7475L40.2396 3.43785V13.1948H34.5099V3.43785L37.3584 4.7475ZM28.6164 4.7475L31.4977 3.40511V13.162H25.7679V3.40511L28.6164 4.7475ZM60.9981 61.2592L37.3911 73.177L13.7846 61.2592C12.9333 46.46 10.7069 36.1465 1.76849 24.687L12.0166 10.7392H15.8146V14.2753L23.738 14.2425V5.07492H24.6875V14.2753H32.5782V5.07492H33.4294V14.308H41.3197V5.07492H42.2373V14.2753H50.1607V5.07492H51.0116V14.2753H58.935V10.7392H62.733L73.0142 24.7198C66.2691 33.2653 61.9145 42.5311 60.9981 61.2592ZM19.7763 4.7475L22.6575 3.40511V13.162H16.895V3.40511L19.7763 4.7475Z" fill="#234B8D"/>
<path fill-rule="evenodd" clip-rule="evenodd" d="M18.4333 47.1144C19.0554 49.3735 19.7103 57.3952 19.7103 57.3952L37.4234 66.3008L55.1032 57.3624C55.1032 57.3624 55.5616 50.8469 56.3474 47.1144H18.4333ZM52.026 56.4129H37.9795L37.7176 55.6267H35.1315L34.9023 56.4129H33.167L34.4766 51.1088H29.5654V56.4129H23.6392V48.9152H41.1559L43.2509 54.7104H46.5255L46.5582 52.8769H45.6405L46.2631 51.1088H42.9885V48.9479H51.7964V49.3735L50.9128 51.9601H52.0255V56.4129H52.026Z" fill="#234B8D"/>
<path fill-rule="evenodd" clip-rule="evenodd" d="M37.1944 53.8922L36.245 51.0105L35.5247 53.8922H37.1944Z" fill="#234B8D"/>
</svg>
