<svg width="83" height="28" viewBox="0 0 83 28" fill="none" xmlns="http://www.w3.org/2000/svg">
<path fill-rule="evenodd" clip-rule="evenodd" d="M82.3755 1.06758C82.3755 1.06758 82.1552 0.32198 81.3851 0.554309L41.7605 12.5115L1.87569 0.503969C1.87569 0.503969 1.12965 0.266479 0.876671 1.04349C2.20095 1.49051 41.7726 15.1033 41.7726 15.1033L82.3755 1.06758Z" fill="#DEE1E9"/>
<path fill-rule="evenodd" clip-rule="evenodd" d="M31.8723 9.52936C33.8781 5.42832 38.153 2.64124 43.0254 2.64124C47.6471 2.64124 51.6539 5.14393 53.7681 8.90508L52.9928 10.0129C51.1634 6.36194 47.3872 3.8558 43.0254 3.8558C38.3393 3.8558 34.2757 6.70269 32.6296 10.8003L31.8723 9.52936Z" fill="#97A0B2"/>
<path fill-rule="evenodd" clip-rule="evenodd" d="M33.2143 15.5852C33.5262 20.7326 37.7998 24.8104 43.0255 24.8104C48.4542 24.8104 52.8551 20.4095 52.8551 14.9803C52.8551 14.8108 52.8508 14.6422 52.8422 14.4748L54.0219 13.0447C54.1354 13.6891 54.1922 14.3423 54.1919 14.9967C54.1919 21.1637 49.1925 26.1635 43.0255 26.1635C36.8589 26.1635 31.8591 21.1637 31.8591 14.9967C31.8591 14.6112 31.8793 14.2304 31.9171 13.8552L33.2143 15.5852Z" fill="#DEE1E9"/>
<path fill-rule="evenodd" clip-rule="evenodd" d="M50.5393 18.1191C50.5393 18.1191 50.8168 17.3124 49.9202 16.9372C49.0235 16.5625 48.5834 16.3995 48.5834 16.3995L41.7744 15.1036L50.5393 18.1191Z" fill="#DEE1E9"/>
<path fill-rule="evenodd" clip-rule="evenodd" d="M31.8773 13.9254L31.9065 13.9676C31.8764 14.301 31.8588 14.6387 31.8588 14.9804C31.8588 21.1384 36.8513 26.1309 43.0093 26.1309C49.1673 26.1309 54.1593 21.1384 54.1593 14.9804C54.1593 14.3617 54.1064 13.7546 54.0096 13.163L55.2943 13.5537C55.3517 14.0354 55.381 14.5201 55.3821 15.0053C55.3821 21.8388 49.8428 27.3781 43.0093 27.3781C36.1758 27.3781 30.6365 21.8388 30.6365 15.0053C30.6365 14.8362 30.6425 14.6693 30.649 14.5019L31.8773 13.9254Z" fill="black"/>
<path fill-rule="evenodd" clip-rule="evenodd" d="M0.8498 1.03674L41.7745 15.1034L82.3977 1.06471C82.3977 1.06471 82.4945 1.29618 82.4962 1.44461C82.4984 1.59304 82.479 1.95014 81.9752 2.16268C81.4714 2.37564 55.2832 13.5623 55.2832 13.5623L54.0054 13.1729L52.8205 14.5854L48.5667 16.4023L41.8085 15.1154L50.5523 18.1207C50.5523 18.1207 50.4447 18.618 49.7215 18.6696C48.9983 18.7217 41.6795 19.3176 41.6795 19.3176L33.2274 15.7139L31.904 13.9534L30.6593 14.5893C30.6593 14.5893 1.84236 2.395 1.2013 2.13471C0.559814 1.87442 0.8498 1.03674 0.8498 1.03674Z" fill="black"/>
<path fill-rule="evenodd" clip-rule="evenodd" d="M51.327 9.61088C49.5691 6.89995 46.5161 5.10672 43.045 5.10672C39.3036 5.10672 36.048 7.19036 34.3761 10.2605L32.6289 10.8035C34.2935 6.71409 38.3085 3.83105 42.9959 3.83105C47.3792 3.83105 51.1739 6.35139 53.0093 10.0218L51.327 9.61088Z" fill="black"/>
</svg>
