<svg width="89" height="37" viewBox="0 0 89 37" fill="none" xmlns="http://www.w3.org/2000/svg">
<path fill-rule="evenodd" clip-rule="evenodd" d="M61.3028 5.59285C61.3028 5.59285 61.2825 7.76567 60.5642 9.74203C59.8799 11.6235 58.3801 13.9578 56.2927 15.9526C53.3133 18.8012 49.8272 21.3102 47.6086 22.6042C45.3899 23.8982 41.8046 25.6143 40.4181 26.0766C39.0826 26.5215 35.7735 27.3593 33.8557 27.0008C31.3745 26.538 31.2678 24.6901 32.0074 22.1943C32.7464 19.6989 37.1832 4.263 37.1832 4.263C20.2158 5.50974 7.71631 11.2849 7.71631 18.3313C7.71631 26.2854 24.0707 32.733 44.2461 32.733C64.4206 32.733 80.776 26.2854 80.776 18.3313C80.7755 12.8069 72.8838 8.00888 61.3028 5.59285ZM55.8526 25.5539C55.8526 25.5539 53.5948 25.542 52.6002 25.5756C51.6586 25.6072 52.3778 26.385 53.9716 27.2993C54.8717 27.8164 54.8717 28.6145 54.7447 29.1269C54.6304 29.584 53.6921 30.1285 52.6758 30.3132C51.6751 30.4955 48.9927 30.7387 47.5132 30.8317C46.0346 30.9238 42.8832 30.9257 41.1269 30.9257C39.3707 30.9257 36.5032 30.6442 34.7473 30.4596C33.1606 30.2924 29.8208 29.7389 29.8208 29.7389L30.2156 28.2348C30.2156 28.2348 31.4307 28.5333 33.5568 28.8105C35.6824 29.0877 37.7787 29.1911 41.1062 29.2218C43.7909 29.2468 46.3628 28.6008 47.4423 27.926C48.3566 27.3541 48.3627 26.5267 47.72 26.0771C46.759 25.4046 46.1649 25.3418 46.3335 24.6906C46.5559 23.8259 47.4773 23.5936 48.5516 23.5813C49.9382 23.5657 55.8559 23.5756 55.8559 23.5756L55.8526 25.5539Z" fill="#2D509F"/>
<path fill-rule="evenodd" clip-rule="evenodd" d="M44.1755 0C19.7778 0 0 8.21618 0 18.3516C0 28.487 19.7778 36.7032 44.1755 36.7032C68.5733 36.7032 88.3516 28.487 88.3516 18.3516C88.3516 8.21618 68.5733 0 44.1755 0ZM44.1789 35.0045C20.7733 35.0045 1.79974 27.5505 1.79974 18.3554C1.79974 9.73729 18.4937 2.65593 39.8663 1.80021C39.4313 3.23537 35.3889 17.3211 34.5941 19.9761C33.4078 23.9392 34.5913 24.5404 37.1159 22.7605C39.377 21.1662 41.2821 19.3806 43.0445 17.1289C44.8438 14.831 45.9394 12.558 46.2799 10.9359C46.6629 9.11345 46.5316 6.84005 45.5984 4.67951C45.1002 3.52439 44.3777 2.12606 44.1637 1.71426C67.5773 1.71426 86.5575 9.16021 86.5575 18.3549C86.5575 27.5496 67.5844 35.0045 44.1789 35.0045Z" fill="#2D509F"/>
</svg>
